<svg width="434" height="250" viewBox="0 0 434 250" fill="none" xmlns="http://www.w3.org/2000/svg">
<path d="M149 72.5002C147.6 71.8335 146.134 71.5002 144.6 71.5002C143.2 71.5002 141.8 71.8002 140.4 72.4002L140 72.6002L139.4 71.4002L139.9 71.2002C141.434 70.5335 143 70.2002 144.6 70.2002C146.334 70.2002 148 70.5668 149.6 71.3002L150.1 71.5002L149.5 72.7002L149 72.5002Z" fill="#E2E2E2"/>
<path d="M157.2 64.3C153.5 61.7 149.1 60.4 144.6 60.4C140.2 60.4 135.9 61.7 132.3 64.2L131.9 64.5L131.1 63.4L131.5 63.1C135.4 60.5 139.9 59 144.6 59C149.4 59 154 60.5 157.9 63.3L158.3 63.5L157.6 64.6L157.2 64.3Z" fill="#E2E2E2"/>
<path d="M166.9 57.9004C160.8 52.3004 152.9 49.2004 144.6 49.2004C136.4 49.2004 128.5 52.3004 122.4 57.8004L122.1 58.1003L121.2 57.2004L121.5 56.8004C127.9 51.0004 136.1 47.9004 144.6 47.9004C153.2 47.9004 161.5 51.1004 167.8 56.9004L168.2 57.3004L167.3 58.3004L166.9 57.9004Z" fill="#E2E2E2"/>
<path d="M190.9 51.8C180.7 36.2 163.3 26.8 144.6 26.8C125.9 26.8 108.6 36.2 98.3004 51.8L98.0004 52.2L96.9004 51.5L97.2003 51.1C107.7 35.1 125.5 25.5 144.6 25.5C163.8 25.5 181.5 35.1 192.1 51.1L192.3 51.5L191.2 52.2L190.9 51.8Z" fill="#E2E2E2"/>
<path d="M178.3 53.6002C169.8 43.7002 157.6 38.0002 144.6 38.0002C131.7 38.0002 119.5 43.7002 111 53.5002L110.7 53.9002L109.7 53.0002L110 52.7002C118.7 42.5002 131.3 36.7002 144.6 36.7002C158 36.7002 170.6 42.5002 179.3 52.7002L179.6 53.1002L178.6 54.0002L178.3 53.6002Z" fill="#E2E2E2"/>
<path d="M52.7001 123.1C51.2334 122.433 49.7334 122.1 48.2001 122.1C46.8001 122.1 45.4001 122.4 44.0001 123L43.6001 123.2L43.1001 122L43.5001 121.8C45.0335 121.133 46.6001 120.8 48.2001 120.8C49.9334 120.8 51.6001 121.167 53.2001 121.9L53.7001 122.1L53.1001 123.3L52.7001 123.1Z" fill="#E2E2E2"/>
<path d="M60.8003 114.901C57.1003 112.301 52.7002 110.901 48.2002 110.901C43.8002 110.901 39.6003 112.301 35.9003 114.801L35.5002 115.101L34.7002 114.001L35.1002 113.701C39.0002 111.001 43.6002 109.601 48.2002 109.601C53.0002 109.601 57.6002 111.101 61.5002 113.801L61.9003 114.101L61.2002 115.201L60.8003 114.901Z" fill="#E2E2E2"/>
<path d="M70.5997 108.5C64.4997 102.9 56.4997 99.8004 48.1997 99.8004C39.9997 99.8004 32.0998 102.8 25.9998 108.4L25.6997 108.7L24.7998 107.7L25.0997 107.4C31.4997 101.6 39.6997 98.4004 48.1997 98.4004C56.8997 98.4004 65.0998 101.7 71.4998 107.5L71.7998 107.8L70.8998 108.8L70.5997 108.5Z" fill="#E2E2E2"/>
<path d="M94.6 102.401C84.3 86.7006 67 77.4006 48.2 77.4006C29.5 77.4006 12.2 86.7006 1.90002 102.401L1.69995 102.801L0.5 102.001L0.800049 101.601C11.3 85.6006 29.1 76.1006 48.2 76.1006C67.4 76.1006 85.1 85.6006 95.7 101.601L95.9 102.101L94.8 102.801L94.6 102.401Z" fill="#E2E2E2"/>
<path d="M81.8998 104.2C73.4998 94.2998 61.1997 88.5998 48.1997 88.5998C35.2997 88.5998 23.0997 94.1998 14.6997 104.1L14.2998 104.5L13.2998 103.6L13.6997 103.2C22.2997 93.0998 34.8997 87.2998 48.1997 87.2998C61.5997 87.2998 74.1998 93.0998 82.8998 103.3L83.1997 103.7L82.1997 104.5L81.8998 104.2Z" fill="#E2E2E2"/>
<path d="M149 123.1C147.6 122.433 146.134 122.1 144.6 122.1C143.2 122.1 141.8 122.4 140.4 123L140 123.2L139.4 122L139.9 121.8C141.434 121.133 143 120.8 144.6 120.8C146.334 120.8 148 121.167 149.6 121.9L150.1 122.1L149.5 123.3L149 123.1Z" fill="#E2E2E2"/>
<path d="M157.2 114.901C153.5 112.301 149.1 110.901 144.6 110.901C140.2 110.901 135.9 112.301 132.3 114.801L131.9 115.101L131.1 114.001L131.5 113.701C135.4 111.001 139.9 109.601 144.6 109.601C149.4 109.601 154 111.101 157.9 113.801L158.3 114.101L157.6 115.201L157.2 114.901Z" fill="#E2E2E2"/>
<path d="M166.9 108.5C160.8 102.9 152.9 99.8004 144.6 99.8004C136.4 99.8004 128.5 102.8 122.4 108.4L122.1 108.7L121.2 107.7L121.5 107.4C127.9 101.6 136.1 98.4004 144.6 98.4004C153.2 98.4004 161.5 101.7 167.8 107.5L168.2 107.8L167.3 108.8L166.9 108.5Z" fill="#E2E2E2"/>
<path d="M190.9 102.401C180.7 86.7006 163.3 77.4006 144.6 77.4006C125.9 77.4006 108.6 86.7006 98.3004 102.401L98.0004 102.801L96.9004 102.001L97.2003 101.601C107.7 85.6006 125.5 76.1006 144.6 76.1006C163.8 76.1006 181.5 85.6006 192.1 101.601L192.3 102.101L191.2 102.801L190.9 102.401Z" fill="#E2E2E2"/>
<path d="M178.3 104.2C169.8 94.2998 157.6 88.5998 144.6 88.5998C131.7 88.5998 119.5 94.1998 111 104.1L110.7 104.5L109.7 103.6L110 103.2C118.7 93.0998 131.3 87.2998 144.6 87.2998C158 87.2998 170.6 93.0998 179.3 103.3L179.6 103.7L178.6 104.5L178.3 104.2Z" fill="#E2E2E2"/>
<path d="M118.7 133.8C112.6 128.1 104.7 125 96.4 125C88.2 125 80.3 128.1 74.2 133.7L73.9 134L73 133L73.3 132.7C79.7 126.9 87.9 123.7 96.4 123.7C105.1 123.7 113.3 126.9 119.7 132.8L120 133.1L119.1 134.1L118.7 133.8Z" fill="#E2E2E2"/>
<path d="M142.7 127.7C132.5 112 115.1 102.7 96.4003 102.7C77.7003 102.7 60.4002 112 50.1002 127.6L49.8003 128.1L48.7002 127.3L49.0002 126.9C59.5002 110.9 77.3003 101.4 96.4003 101.4C115.6 101.4 133.3 110.9 143.9 126.9L144.1 127.3L143 128.1L142.7 127.7Z" fill="#E2E2E2"/>
<path d="M130.1 129.4C121.6 119.5 109.4 113.9 96.4 113.9C83.5 113.9 71.3 119.5 62.9 129.4L62.5 129.8L61.5 128.9L61.8 128.5C70.5 118.4 83.1 112.5 96.4 112.5C109.8 112.5 122.4 118.4 131.1 128.6L131.4 129L130.4 129.8L130.1 129.4Z" fill="#E2E2E2"/>
<path d="M190.9 152.901C180.7 137.301 163.3 128.001 144.6 128.001C125.9 128.001 108.6 137.301 98.3004 152.901L98.0004 153.301L96.9004 152.601L97.2003 152.201C107.7 136.201 125.5 126.601 144.6 126.601C163.8 126.601 181.5 136.201 192.1 152.201L192.3 152.601L191.2 153.401L190.9 152.901Z" fill="#E2E2E2"/>
<path d="M100.8 148.401C99.4003 147.734 97.9336 147.401 96.4003 147.401C95.0003 147.401 93.6002 147.701 92.2002 148.301L91.8003 148.501L91.2002 147.301L91.7002 147.101C93.2335 146.434 94.8003 146.101 96.4003 146.101C98.1336 146.101 99.8003 146.467 101.4 147.201L101.9 147.401L101.3 148.601L100.8 148.401Z" fill="#E2E2E2"/>
<path d="M109 140.2C105.3 137.6 100.9 136.2 96.4004 136.2C92.0004 136.2 87.7003 137.6 84.1003 140.1L83.7003 140.4L82.9004 139.3L83.3004 139C87.2004 136.3 91.7004 134.9 96.4004 134.9C101.2 134.9 105.8 136.4 109.7 139.1L110.1 139.4L109.4 140.5L109 140.2Z" fill="#E2E2E2"/>
<path d="M118.7 133.8C112.6 128.1 104.7 125 96.4 125C88.2 125 80.3 128.1 74.2 133.7L73.9 134L73 133L73.3 132.7C79.7 126.9 87.9 123.7 96.4 123.7C105.1 123.7 113.3 126.9 119.7 132.8L120 133.1L119.1 134.1L118.7 133.8Z" fill="#E2E2E2"/>
<path d="M142.7 127.7C132.5 112 115.1 102.7 96.4003 102.7C77.7003 102.7 60.4002 112 50.1002 127.6L49.8003 128.1L48.7002 127.3L49.0002 126.9C59.5002 110.9 77.3003 101.4 96.4003 101.4C115.6 101.4 133.3 110.9 143.9 126.9L144.1 127.3L143 128.1L142.7 127.7Z" fill="#E2E2E2"/>
<path d="M130.1 129.4C121.6 119.5 109.4 113.9 96.4 113.9C83.5 113.9 71.3 119.5 62.9 129.4L62.5 129.8L61.5 128.9L61.8 128.5C70.5 118.4 83.1 112.5 96.4 112.5C109.8 112.5 122.4 118.4 131.1 128.6L131.4 129L130.4 129.8L130.1 129.4Z" fill="#E2E2E2"/>
<path d="M149 173.7C147.6 173.034 146.134 172.7 144.6 172.7C143.2 172.7 141.8 173 140.4 173.6L140 173.8L139.4 172.6L139.9 172.4C141.434 171.734 143 171.4 144.6 171.4C146.334 171.4 148 171.767 149.6 172.5L150.1 172.7L149.5 173.9L149 173.7Z" fill="#E2E2E2"/>
<path d="M157.2 165.5C153.5 162.9 149.1 161.5 144.6 161.5C140.2 161.5 135.9 162.8 132.3 165.4L131.9 165.7L131.1 164.6L131.5 164.3C135.4 161.6 139.9 160.2 144.6 160.2C149.4 160.2 154 161.6 157.9 164.4L158.3 164.7L157.6 165.8L157.2 165.5Z" fill="#E2E2E2"/>
<path d="M166.9 159.1C160.8 153.4 152.9 150.3 144.6 150.3C136.4 150.3 128.5 153.4 122.4 158.9L122.1 159.3L121.2 158.3L121.5 158C127.9 152.2 136.1 149 144.6 149C153.2 149 161.5 152.2 167.8 158.1L168.2 158.4L167.3 159.4L166.9 159.1Z" fill="#E2E2E2"/>
<path d="M190.9 152.901C180.7 137.301 163.3 128.001 144.6 128.001C125.9 128.001 108.6 137.301 98.3004 152.901L98.0004 153.301L96.9004 152.601L97.2003 152.201C107.7 136.201 125.5 126.601 144.6 126.601C163.8 126.601 181.5 136.201 192.1 152.201L192.3 152.601L191.2 153.401L190.9 152.901Z" fill="#E2E2E2"/>
<path d="M178.3 154.7C169.8 144.8 157.6 139.2 144.6 139.2C131.7 139.2 119.5 144.8 111 154.7L110.7 155L109.7 154.2L110 153.8C118.7 143.6 131.3 137.8 144.6 137.8C158 137.8 170.6 143.7 179.3 153.9L179.6 154.2L178.6 155.1L178.3 154.7Z" fill="#E2E2E2"/>
<path d="M100.8 199.001C99.4003 198.334 97.9336 198.001 96.4003 198.001C95.0003 198.001 93.6002 198.301 92.2002 198.901L91.8003 199.101L91.2002 197.801L91.7002 197.601C93.2335 196.934 94.8003 196.601 96.4003 196.601C98.1336 196.601 99.8003 197.001 101.4 197.801L101.9 198.001L101.3 199.201L100.8 199.001Z" fill="#E2E2E2"/>
<path d="M109 190.8C105.3 188.2 100.9 186.8 96.4004 186.8C92.0004 186.8 87.7003 188.1 84.1003 190.7L83.7003 190.9L82.9004 189.8L83.3004 189.6C87.2004 186.9 91.7004 185.5 96.4004 185.5C101.2 185.5 105.8 186.9 109.7 189.7L110.1 190L109.4 191.1L109 190.8Z" fill="#E2E2E2"/>
<path d="M118.7 184.3C112.6 178.7 104.7 175.6 96.4 175.6C88.2 175.6 80.3 178.7 74.2 184.2L73.9 184.6L73 183.6L73.3 183.2C79.7 177.5 87.9 174.3 96.4 174.3C105.1 174.3 113.3 177.5 119.7 183.4L120 183.7L119.1 184.7L118.7 184.3Z" fill="#E2E2E2"/>
<path d="M142.7 178.2C132.5 162.6 115.1 153.3 96.4003 153.3C77.7003 153.3 60.4002 162.6 50.1002 178.2L49.8003 178.6L48.7002 177.9L49.0002 177.5C59.5002 161.5 77.3003 151.9 96.4003 151.9C115.6 151.9 133.3 161.5 143.9 177.5L144.1 177.9L143 178.6L142.7 178.2Z" fill="#E2E2E2"/>
<path d="M130.1 180.001C121.6 170.101 109.4 164.401 96.4 164.401C83.5 164.401 71.3 170.101 62.9 179.901L62.5 180.301L61.5 179.501L61.8 179.101C70.5 168.901 83.1 163.101 96.4 163.101C109.8 163.101 122.4 169.001 131.1 179.201L131.4 179.501L130.4 180.401L130.1 180.001Z" fill="#E2E2E2"/>
<path d="M197.2 47.3004C195.8 46.6337 194.333 46.3004 192.8 46.3004C191.333 46.3004 189.933 46.6004 188.6 47.2004L188.2 47.4004L187.6 46.1003L188.1 45.9004C189.633 45.2337 191.2 44.9004 192.8 44.9004C194.533 44.9004 196.2 45.267 197.8 46.0004L198.2 46.3004L197.7 47.5004L197.2 47.3004Z" fill="#E2E2E2"/>
<path d="M205.3 39.0998C201.7 36.4998 197.3 35.0998 192.8 35.0998C188.4 35.0998 184.1 36.3998 180.5 38.8998L180.1 39.1998L179.3 38.0998L179.7 37.8998C183.6 35.1998 188.1 33.7998 192.8 33.7998C197.6 33.7998 202.2 35.1998 206.1 37.9998L206.5 38.2998L205.7 39.3998L205.3 39.0998Z" fill="#E2E2E2"/>
<path d="M215.1 32.6006C209 27.0006 201.1 23.9006 192.8 23.9006C184.6 23.9006 176.7 27.0006 170.6 32.5006L170.2 32.9006L169.3 31.9006L169.7 31.5006C176.1 25.8006 184.3 22.6006 192.8 22.6006C201.4 22.6006 209.7 25.8006 216 31.7006L216.4 32.0006L215.5 33.0006L215.1 32.6006Z" fill="#E2E2E2"/>
<path d="M239.1 26.5002C228.8 10.9002 211.5 1.60016 192.8 1.60016C174.1 1.60016 156.8 10.9002 146.5 26.5002L146.2 26.9002L145.1 26.2002L145.4 25.8002C155.9 9.80017 173.7 0.200195 192.8 0.200195C212 0.200195 229.7 9.80017 240.2 25.8002L240.5 26.2002L239.4 26.9002L239.1 26.5002Z" fill="#E2E2E2"/>
<path d="M226.4 28.3004C218 18.4004 205.8 12.7004 192.8 12.7004C179.9 12.7004 167.7 18.4004 159.2 28.2004L158.9 28.6003L157.9 27.8004L158.2 27.4004C166.9 17.2004 179.5 11.4004 192.8 11.4004C206.2 11.4004 218.8 17.2004 227.5 27.4004L227.8 27.8004L226.8 28.7004L226.4 28.3004Z" fill="#E2E2E2"/>
<path d="M149 72.5002C147.6 71.8335 146.134 71.5002 144.6 71.5002C143.2 71.5002 141.8 71.8002 140.4 72.4002L140 72.6002L139.4 71.4002L139.9 71.2002C141.434 70.5335 143 70.2002 144.6 70.2002C146.334 70.2002 148 70.5668 149.6 71.3002L150.1 71.5002L149.5 72.7002L149 72.5002Z" fill="#E2E2E2"/>
<path d="M157.2 64.3C153.5 61.7 149.1 60.4 144.6 60.4C140.2 60.4 135.9 61.7 132.3 64.2L131.9 64.5L131.1 63.4L131.5 63.1C135.4 60.5 139.9 59 144.6 59C149.4 59 154 60.5 157.9 63.3L158.3 63.5L157.6 64.6L157.2 64.3Z" fill="#E2E2E2"/>
<path d="M166.9 57.9004C160.8 52.3004 152.9 49.2004 144.6 49.2004C136.4 49.2004 128.5 52.3004 122.4 57.8004L122.1 58.1003L121.2 57.2004L121.5 56.8004C127.9 51.0004 136.1 47.9004 144.6 47.9004C153.2 47.9004 161.5 51.1004 167.8 56.9004L168.2 57.3004L167.3 58.3004L166.9 57.9004Z" fill="#E2E2E2"/>
<path d="M190.9 51.8C180.7 36.2 163.3 26.8 144.6 26.8C125.9 26.8 108.6 36.2 98.3004 51.8L98.0004 52.2L96.9004 51.5L97.2003 51.1C107.7 35.1 125.5 25.5 144.6 25.5C163.8 25.5 181.5 35.1 192.1 51.1L192.3 51.5L191.2 52.2L190.9 51.8Z" fill="#E2E2E2"/>
<path d="M178.3 53.6002C169.8 43.7002 157.6 38.0002 144.6 38.0002C131.7 38.0002 119.5 43.7002 111 53.5002L110.7 53.9002L109.7 53.0002L110 52.7002C118.7 42.5002 131.3 36.7002 144.6 36.7002C158 36.7002 170.6 42.5002 179.3 52.7002L179.6 53.1002L178.6 54.0002L178.3 53.6002Z" fill="#E2E2E2"/>
<path d="M197.2 97.8C195.8 97.1333 194.333 96.8 192.8 96.8C191.333 96.8 189.933 97.1 188.6 97.7L188.2 97.9L187.6 96.7L188.1 96.5C189.633 95.8333 191.2 95.5 192.8 95.5C194.533 95.5 196.2 95.8666 197.8 96.6L198.2 96.8L197.7 98L197.2 97.8Z" fill="#E2E2E2"/>
<path d="M205.3 89.5998C201.7 86.9998 197.3 85.6998 192.8 85.6998C188.4 85.6998 184.1 86.9998 180.5 89.4998L180.1 89.7998L179.3 88.6998L179.7 88.3998C183.6 85.6998 188.1 84.2998 192.8 84.2998C197.6 84.2998 202.2 85.7998 206.1 88.4998L206.5 88.7998L205.7 89.8998L205.3 89.5998Z" fill="#E2E2E2"/>
<path d="M215.1 83.2006C209 77.6006 201.1 74.5006 192.8 74.5006C184.6 74.5006 176.7 77.5006 170.6 83.1006L170.2 83.4006L169.3 82.4006L169.7 82.1006C176 76.3006 184.3 73.1006 192.8 73.1006C201.4 73.1006 209.7 76.4006 216 82.2006L216.4 82.6006L215.5 83.5006L215.1 83.2006Z" fill="#E2E2E2"/>
<path d="M239.1 77.0998C228.8 61.4998 211.5 52.0998 192.8 52.0998C174.1 52.0998 156.8 61.3998 146.5 77.0998L146.2 77.4998L145.1 76.7998L145.4 76.2998C155.9 60.2998 173.7 50.7998 192.8 50.7998C212 50.7998 229.7 60.2998 240.2 76.3998L240.5 76.7998L239.4 77.4998L239.1 77.0998Z" fill="#E2E2E2"/>
<path d="M226.4 78.9C218 69 205.8 63.3 192.8 63.3C179.9 63.3 167.7 69 159.2 78.8L158.9 79.2L157.9 78.3L158.2 77.9C166.9 67.8 179.5 62 192.8 62C206.2 62 218.8 67.8 227.5 78L227.8 78.4L226.8 79.3L226.4 78.9Z" fill="#E2E2E2"/>
<path d="M149 123.1C147.6 122.433 146.134 122.1 144.6 122.1C143.2 122.1 141.8 122.4 140.4 123L140 123.2L139.4 122L139.9 121.8C141.434 121.133 143 120.8 144.6 120.8C146.334 120.8 148 121.167 149.6 121.9L150.1 122.1L149.5 123.3L149 123.1Z" fill="#E2E2E2"/>
<path d="M157.2 114.901C153.5 112.301 149.1 110.901 144.6 110.901C140.2 110.901 135.9 112.301 132.3 114.801L131.9 115.101L131.1 114.001L131.5 113.701C135.4 111.001 139.9 109.601 144.6 109.601C149.4 109.601 154 111.101 157.9 113.801L158.3 114.101L157.6 115.201L157.2 114.901Z" fill="#E2E2E2"/>
<path d="M166.9 108.5C160.8 102.9 152.9 99.8004 144.6 99.8004C136.4 99.8004 128.5 102.8 122.4 108.4L122.1 108.7L121.2 107.7L121.5 107.4C127.9 101.6 136.1 98.4004 144.6 98.4004C153.2 98.4004 161.5 101.7 167.8 107.5L168.2 107.8L167.3 108.8L166.9 108.5Z" fill="#E2E2E2"/>
<path d="M190.9 102.401C180.7 86.7006 163.3 77.4006 144.6 77.4006C125.9 77.4006 108.6 86.7006 98.3004 102.401L98.0004 102.801L96.9004 102.001L97.2003 101.601C107.7 85.6006 125.5 76.1006 144.6 76.1006C163.8 76.1006 181.5 85.6006 192.1 101.601L192.3 102.101L191.2 102.801L190.9 102.401Z" fill="#E2E2E2"/>
<path d="M178.3 104.2C169.8 94.2998 157.6 88.5998 144.6 88.5998C131.7 88.5998 119.5 94.1998 111 104.1L110.7 104.5L109.7 103.6L110 103.2C118.7 93.0998 131.3 87.2998 144.6 87.2998C158 87.2998 170.6 93.0998 179.3 103.3L179.6 103.7L178.6 104.5L178.3 104.2Z" fill="#E2E2E2"/>
<path d="M245.4 123.1C244 122.433 242.533 122.1 241 122.1C239.533 122.1 238.133 122.4 236.8 123L236.4 123.2L235.8 122L236.3 121.8C237.833 121.133 239.4 120.8 241 120.8C242.733 120.8 244.4 121.167 246 121.9L246.4 122.1L245.9 123.3L245.4 123.1Z" fill="#E2E2E2"/>
<path d="M253.5 114.901C249.8 112.301 245.5 110.901 241 110.901C236.6 110.901 232.3 112.301 228.7 114.801L228.2 115.101L227.5 114.001L227.9 113.701C231.8 111.001 236.3 109.601 241 109.601C245.8 109.601 250.4 111.101 254.3 113.801L254.7 114.101L253.9 115.201L253.5 114.901Z" fill="#E2E2E2"/>
<path d="M263.3 108.5C257.2 102.9 249.3 99.8004 241 99.8004C232.8 99.8004 224.9 102.8 218.8 108.4L218.4 108.7L217.5 107.7L217.9 107.4C224.2 101.6 232.4 98.4004 241 98.4004C249.6 98.4004 257.9 101.7 264.2 107.5L264.6 107.8L263.7 108.8L263.3 108.5Z" fill="#E2E2E2"/>
<path d="M287.3 102.401C277 86.7006 259.7 77.4006 241 77.4006C222.3 77.4006 205 86.7006 194.7 102.401L194.4 102.801L193.3 102.001L193.6 101.601C204.1 85.6006 221.8 76.1006 241 76.1006C260.2 76.1006 277.9 85.6006 288.4 101.601L288.7 102.101L287.6 102.801L287.3 102.401Z" fill="#E2E2E2"/>
<path d="M274.6 104.2C266.2 94.2998 254 88.5998 241 88.5998C228.1 88.5998 215.8 94.1998 207.4 104.1L207.1 104.5L206.1 103.6L206.4 103.2C215.1 93.0998 227.7 87.2998 241 87.2998C254.4 87.2998 267 93.0998 275.6 103.3L276 103.7L275 104.5L274.6 104.2Z" fill="#E2E2E2"/>
<path d="M215.1 133.8C209 128.1 201.1 125 192.8 125C184.6 125 176.7 128.1 170.6 133.7L170.2 134L169.3 133L169.7 132.7C176.1 126.9 184.3 123.7 192.8 123.7C201.4 123.7 209.7 126.9 216 132.8L216.4 133.1L215.5 134.1L215.1 133.8Z" fill="#E2E2E2"/>
<path d="M239.1 127.7C228.8 112 211.5 102.7 192.8 102.7C174.1 102.7 156.8 112 146.5 127.6L146.2 128.1L145.1 127.3L145.4 126.9C155.9 110.9 173.7 101.4 192.8 101.4C212 101.4 229.7 110.9 240.2 126.9L240.5 127.3L239.4 128.1L239.1 127.7Z" fill="#E2E2E2"/>
<path d="M226.4 129.4C218 119.5 205.8 113.9 192.8 113.9C179.9 113.9 167.7 119.5 159.2 129.4L158.9 129.8L157.9 128.9L158.2 128.5C166.9 118.4 179.5 112.5 192.8 112.5C206.2 112.5 218.8 118.4 227.5 128.6L227.8 129L226.8 129.8L226.4 129.4Z" fill="#E2E2E2"/>
<path d="M190.9 152.901C180.7 137.301 163.3 128.001 144.6 128.001C125.9 128.001 108.6 137.301 98.3004 152.901L98.0004 153.301L96.9004 152.601L97.2003 152.201C107.7 136.201 125.5 126.601 144.6 126.601C163.8 126.601 181.5 136.201 192.1 152.201L192.3 152.601L191.2 153.401L190.9 152.901Z" fill="#E2E2E2"/>
<path d="M287.3 152.901C277 137.301 259.7 128.001 241 128.001C222.3 128.001 205 137.301 194.7 152.901L194.4 153.301L193.3 152.601L193.6 152.201C204.1 136.201 221.8 126.601 241 126.601C260.2 126.601 277.9 136.201 288.4 152.201L288.7 152.601L287.6 153.401L287.3 152.901Z" fill="#E2E2E2"/>
<path d="M197.2 148.401C195.8 147.734 194.333 147.401 192.8 147.401C191.333 147.401 189.933 147.701 188.6 148.301L188.2 148.501L187.6 147.301L188.1 147.101C189.633 146.434 191.2 146.101 192.8 146.101C194.533 146.101 196.2 146.467 197.8 147.201L198.2 147.401L197.7 148.601L197.2 148.401Z" fill="#E2E2E2"/>
<path d="M205.3 140.2C201.7 137.6 197.3 136.2 192.8 136.2C188.4 136.2 184.1 137.6 180.5 140.1L180.1 140.4L179.3 139.3L179.7 139C183.6 136.3 188.1 134.9 192.8 134.9C197.6 134.9 202.2 136.4 206.1 139.1L206.5 139.4L205.7 140.5L205.3 140.2Z" fill="#E2E2E2"/>
<path d="M215.1 133.8C209 128.1 201.1 125 192.8 125C184.6 125 176.7 128.1 170.6 133.7L170.2 134L169.3 133L169.7 132.7C176.1 126.9 184.3 123.7 192.8 123.7C201.4 123.7 209.7 126.9 216 132.8L216.4 133.1L215.5 134.1L215.1 133.8Z" fill="#E2E2E2"/>
<path d="M239.1 127.7C228.8 112 211.5 102.7 192.8 102.7C174.1 102.7 156.8 112 146.5 127.6L146.2 128.1L145.1 127.3L145.4 126.9C155.9 110.9 173.7 101.4 192.8 101.4C212 101.4 229.7 110.9 240.2 126.9L240.5 127.3L239.4 128.1L239.1 127.7Z" fill="#E2E2E2"/>
<path d="M226.4 129.4C218 119.5 205.8 113.9 192.8 113.9C179.9 113.9 167.7 119.5 159.2 129.4L158.9 129.8L157.9 128.9L158.2 128.5C166.9 118.4 179.5 112.5 192.8 112.5C206.2 112.5 218.8 118.4 227.5 128.6L227.8 129L226.8 129.8L226.4 129.4Z" fill="#E2E2E2"/>
<path d="M149 173.7C147.6 173.034 146.134 172.7 144.6 172.7C143.2 172.7 141.8 173 140.4 173.6L140 173.8L139.4 172.6L139.9 172.4C141.434 171.734 143 171.4 144.6 171.4C146.334 171.4 148 171.767 149.6 172.5L150.1 172.7L149.5 173.9L149 173.7Z" fill="#E2E2E2"/>
<path d="M157.2 165.5C153.5 162.9 149.1 161.5 144.6 161.5C140.2 161.5 135.9 162.8 132.3 165.4L131.9 165.7L131.1 164.6L131.5 164.3C135.4 161.6 139.9 160.2 144.6 160.2C149.4 160.2 154 161.6 157.9 164.4L158.3 164.7L157.6 165.8L157.2 165.5Z" fill="#E2E2E2"/>
<path d="M166.9 159.1C160.8 153.4 152.9 150.3 144.6 150.3C136.4 150.3 128.5 153.4 122.4 158.9L122.1 159.3L121.2 158.3L121.5 158C127.9 152.2 136.1 149 144.6 149C153.2 149 161.5 152.2 167.8 158.1L168.2 158.4L167.3 159.4L166.9 159.1Z" fill="#E2E2E2"/>
<path d="M190.9 152.901C180.7 137.301 163.3 128.001 144.6 128.001C125.9 128.001 108.6 137.301 98.3004 152.901L98.0004 153.301L96.9004 152.601L97.2003 152.201C107.7 136.201 125.5 126.601 144.6 126.601C163.8 126.601 181.5 136.201 192.1 152.201L192.3 152.601L191.2 153.401L190.9 152.901Z" fill="#E2E2E2"/>
<path d="M178.3 154.7C169.8 144.8 157.6 139.2 144.6 139.2C131.7 139.2 119.5 144.8 111 154.7L110.7 155L109.7 154.2L110 153.8C118.7 143.6 131.3 137.8 144.6 137.8C158 137.8 170.6 143.7 179.3 153.9L179.6 154.2L178.6 155.1L178.3 154.7Z" fill="#E2E2E2"/>
<path d="M245.4 173.7C244 173.034 242.533 172.7 241 172.7C239.533 172.7 238.133 173 236.8 173.6L236.4 173.8L235.8 172.6L236.3 172.4C237.833 171.734 239.4 171.4 241 171.4C242.733 171.4 244.4 171.767 246 172.5L246.4 172.7L245.9 173.9L245.4 173.7Z" fill="#E2E2E2"/>
<path d="M253.5 165.5C249.8 162.9 245.5 161.5 241 161.5C236.6 161.5 232.3 162.8 228.7 165.4L228.2 165.7L227.5 164.6L227.9 164.3C231.8 161.6 236.3 160.2 241 160.2C245.8 160.2 250.4 161.6 254.3 164.4L254.7 164.7L253.9 165.8L253.5 165.5Z" fill="#E2E2E2"/>
<path d="M263.3 159.1C257.2 153.4 249.3 150.3 241 150.3C232.8 150.3 224.9 153.4 218.8 158.9L218.4 159.3L217.5 158.3L217.9 158C224.2 152.2 232.4 149 241 149C249.6 149 257.9 152.2 264.2 158.1L264.6 158.4L263.7 159.4L263.3 159.1Z" fill="#E2E2E2"/>
<path d="M287.3 152.901C277 137.301 259.7 128.001 241 128.001C222.3 128.001 205 137.301 194.7 152.901L194.4 153.301L193.3 152.601L193.6 152.201C204.1 136.201 221.8 126.601 241 126.601C260.2 126.601 277.9 136.201 288.4 152.201L288.7 152.601L287.6 153.401L287.3 152.901Z" fill="#E2E2E2"/>
<path d="M274.6 154.7C266.2 144.8 254 139.2 241 139.2C228.1 139.2 215.8 144.8 207.4 154.7L207.1 155L206.1 154.2L206.4 153.8C215.1 143.6 227.7 137.8 241 137.8C254.4 137.8 267 143.7 275.6 153.9L276 154.2L275 155.1L274.6 154.7Z" fill="#E2E2E2"/>
<path d="M197.2 199.001C195.8 198.334 194.333 198.001 192.8 198.001C191.333 198.001 189.933 198.301 188.6 198.901L188.2 199.101L187.6 197.801L188.1 197.601C189.633 196.934 191.2 196.601 192.8 196.601C194.533 196.601 196.2 197.001 197.8 197.801L198.2 198.001L197.7 199.201L197.2 199.001Z" fill="#E2E2E2"/>
<path d="M205.3 190.8C201.7 188.2 197.3 186.8 192.8 186.8C188.4 186.8 184.1 188.1 180.5 190.7L180.1 190.9L179.3 189.8L179.7 189.6C183.6 186.9 188.1 185.5 192.8 185.5C197.6 185.5 202.2 186.9 206.1 189.7L206.5 190L205.7 191.1L205.3 190.8Z" fill="#E2E2E2"/>
<path d="M215.1 184.3C209 178.7 201.1 175.6 192.8 175.6C184.6 175.6 176.7 178.7 170.6 184.2L170.2 184.6L169.3 183.6L169.7 183.2C176.1 177.5 184.3 174.3 192.8 174.3C201.4 174.3 209.7 177.5 216 183.4L216.4 183.7L215.5 184.7L215.1 184.3Z" fill="#E2E2E2"/>
<path d="M239.1 178.2C228.8 162.6 211.5 153.3 192.8 153.3C174.1 153.3 156.8 162.6 146.5 178.2L146.2 178.6L145.1 177.9L145.4 177.5C155.9 161.5 173.7 151.9 192.8 151.9C212 151.9 229.7 161.5 240.2 177.5L240.5 177.9L239.4 178.6L239.1 178.2Z" fill="#E2E2E2"/>
<path d="M226.4 180.001C218 170.101 205.8 164.401 192.8 164.401C179.9 164.401 167.7 170.101 159.2 179.901L158.9 180.301L157.9 179.501L158.2 179.101C166.9 168.901 179.5 163.101 192.8 163.101C206.2 163.101 218.8 169.001 227.5 179.201L227.8 179.501L226.8 180.401L226.4 180.001Z" fill="#E2E2E2"/>
<path d="M245.4 224.2C244 223.6 242.533 223.3 241 223.3C239.533 223.3 238.133 223.567 236.8 224.1L236.4 224.3L235.8 223.1L236.3 222.9C237.833 222.234 239.4 221.9 241 221.9C242.733 221.9 244.4 222.267 246 223L246.4 223.3L245.9 224.5L245.4 224.2Z" fill="#E2E2E2"/>
<path d="M253.5 216.1C249.8 213.4 245.5 212.1 241 212.1C236.6 212.1 232.3 213.4 228.7 215.9L228.2 216.2L227.5 215.1L227.9 214.8C231.8 212.2 236.3 210.7 241 210.7C245.8 210.7 250.4 212.2 254.3 215L254.7 215.3L253.9 216.3L253.5 216.1Z" fill="#E2E2E2"/>
<path d="M263.3 209.601C257.2 204.001 249.3 200.901 241 200.901C232.8 200.901 224.9 204.001 218.8 209.501L218.4 209.801L217.5 208.901L217.9 208.501C224.2 202.701 232.4 199.601 241 199.601C249.6 199.601 257.9 202.801 264.2 208.601L264.6 209.001L263.7 210.001L263.3 209.601Z" fill="#E2E2E2"/>
<path d="M287.3 203.5C277 187.9 259.7 178.5 241 178.5C222.3 178.5 205 187.9 194.7 203.5L194.4 203.9L193.3 203.2L193.6 202.8C204.1 186.8 221.8 177.2 241 177.2C260.2 177.2 277.9 186.8 288.4 202.8L288.7 203.2L287.6 203.9L287.3 203.5Z" fill="#E2E2E2"/>
<path d="M274.6 205.3C266.2 195.4 254 189.7 241 189.7C228.1 189.7 215.8 195.4 207.4 205.2L207.1 205.6L206.1 204.8L206.4 204.4C215.1 194.2 227.7 188.4 241 188.4C254.4 188.4 267 194.2 275.6 204.4L276 204.8L275 205.7L274.6 205.3Z" fill="#E2E2E2"/>
<path d="M215.1 234.9C209 229.3 201.1 226.2 192.8 226.2C184.6 226.2 176.7 229.2 170.6 234.8L170.2 235.1L169.3 234.2L169.7 233.8C176.1 228 184.3 224.9 192.8 224.9C201.4 224.9 209.7 228.1 216 233.9L216.4 234.3L215.5 235.2L215.1 234.9Z" fill="#E2E2E2"/>
<path d="M239.1 228.8C228.8 213.2 211.5 203.8 192.8 203.8C174.1 203.8 156.8 213.2 146.5 228.8L146.2 229.2L145.1 228.5L145.4 228C155.9 212.1 173.7 202.5 192.8 202.5C212 202.5 229.7 212.1 240.2 228.1L240.5 228.5L239.4 229.2L239.1 228.8Z" fill="#E2E2E2"/>
<path d="M226.4 230.6C218 220.7 205.8 215 192.8 215C179.9 215 167.7 220.7 159.2 230.5L158.9 230.9L157.9 230L158.2 229.7C166.9 219.5 179.5 213.7 192.8 213.7C206.2 213.7 218.8 219.5 227.5 229.7L227.8 230.1L226.8 231L226.4 230.6Z" fill="#E2E2E2"/>
<path d="M197.2 249.5C195.8 248.834 194.333 248.5 192.8 248.5C191.333 248.5 189.933 248.8 188.6 249.4L188.2 249.6L187.6 248.4L188.1 248.2C189.633 247.534 191.2 247.2 192.8 247.2C194.533 247.2 196.2 247.567 197.8 248.3L198.2 248.5L197.7 249.7L197.2 249.5Z" fill="#E2E2E2"/>
<path d="M205.3 241.3C201.7 238.7 197.3 237.4 192.8 237.4C188.4 237.4 184.1 238.7 180.5 241.2L180.1 241.5L179.3 240.4L179.7 240.1C183.6 237.4 188.1 236 192.8 236C197.6 236 202.2 237.5 206.1 240.2L206.5 240.5L205.7 241.6L205.3 241.3Z" fill="#E2E2E2"/>
<path d="M215.1 234.9C209 229.3 201.1 226.2 192.8 226.2C184.6 226.2 176.7 229.2 170.6 234.8L170.2 235.1L169.3 234.2L169.7 233.8C176.1 228 184.3 224.9 192.8 224.9C201.4 224.9 209.7 228.1 216 233.9L216.4 234.3L215.5 235.2L215.1 234.9Z" fill="#E2E2E2"/>
<path d="M239.1 228.8C228.8 213.2 211.5 203.8 192.8 203.8C174.1 203.8 156.8 213.2 146.5 228.8L146.2 229.2L145.1 228.5L145.4 228C155.9 212.1 173.7 202.5 192.8 202.5C212 202.5 229.7 212.1 240.2 228.1L240.5 228.5L239.4 229.2L239.1 228.8Z" fill="#E2E2E2"/>
<path d="M226.4 230.6C218 220.7 205.8 215 192.8 215C179.9 215 167.7 220.7 159.2 230.5L158.9 230.9L157.9 230L158.2 229.7C166.9 219.5 179.5 213.7 192.8 213.7C206.2 213.7 218.8 219.5 227.5 229.7L227.8 230.1L226.8 231L226.4 230.6Z" fill="#E2E2E2"/>
<path d="M293.6 97.8C292.2 97.1333 290.733 96.8 289.2 96.8C287.733 96.8 286.333 97.1 285 97.7L284.6 97.9L284 96.7L284.5 96.5C286.033 95.8333 287.6 95.5 289.2 95.5C290.933 95.5 292.6 95.8666 294.2 96.6L294.6 96.8L294.1 98L293.6 97.8Z" fill="#E2E2E2"/>
<path d="M245.4 123.1C244 122.433 242.533 122.1 241 122.1C239.533 122.1 238.133 122.4 236.8 123L236.4 123.2L235.8 122L236.3 121.8C237.833 121.133 239.4 120.8 241 120.8C242.733 120.8 244.4 121.167 246 121.9L246.4 122.1L245.9 123.3L245.4 123.1Z" fill="#E2E2E2"/>
<path d="M253.5 114.901C249.8 112.301 245.5 110.901 241 110.901C236.6 110.901 232.3 112.301 228.7 114.801L228.2 115.101L227.5 114.001L227.9 113.701C231.8 111.001 236.3 109.601 241 109.601C245.8 109.601 250.4 111.101 254.3 113.801L254.7 114.101L253.9 115.201L253.5 114.901Z" fill="#E2E2E2"/>
<path d="M263.3 108.5C257.2 102.9 249.3 99.8004 241 99.8004C232.8 99.8004 224.9 102.8 218.8 108.4L218.4 108.7L217.5 107.7L217.9 107.4C224.2 101.6 232.4 98.4004 241 98.4004C249.6 98.4004 257.9 101.7 264.2 107.5L264.6 107.8L263.7 108.8L263.3 108.5Z" fill="#E2E2E2"/>
<path d="M287.3 102.401C277 86.7006 259.7 77.4006 241 77.4006C222.3 77.4006 205 86.7006 194.7 102.401L194.4 102.801L193.3 102.001L193.6 101.601C204.1 85.6006 221.8 76.1006 241 76.1006C260.2 76.1006 277.9 85.6006 288.4 101.601L288.7 102.101L287.6 102.801L287.3 102.401Z" fill="#E2E2E2"/>
<path d="M274.6 104.2C266.2 94.2998 254 88.5998 241 88.5998C228.1 88.5998 215.8 94.1998 207.4 104.1L207.1 104.5L206.1 103.6L206.4 103.2C215.1 93.0998 227.7 87.2998 241 87.2998C254.4 87.2998 267 93.0998 275.6 103.3L276 103.7L275 104.5L274.6 104.2Z" fill="#E2E2E2"/>
<path d="M341.8 123.1C340.4 122.433 338.934 122.1 337.4 122.1C335.934 122.1 334.534 122.4 333.2 123L332.7 123.2L332.2 122L332.7 121.8C334.167 121.133 335.734 120.8 337.4 120.8C339.134 120.8 340.8 121.167 342.4 121.9L342.8 122.1L342.3 123.3L341.8 123.1Z" fill="#E2E2E2"/>
<path d="M349.9 114.901C346.2 112.301 341.9 110.901 337.4 110.901C333 110.901 328.7 112.301 325 114.801L324.6 115.101L323.9 114.001L324.3 113.701C328.2 111.001 332.7 109.601 337.4 109.601C342.2 109.601 346.8 111.101 350.7 113.801L351.1 114.101L350.3 115.201L349.9 114.901Z" fill="#E2E2E2"/>
<path d="M359.7 108.5C353.6 102.9 345.7 99.8004 337.4 99.8004C329.2 99.8004 321.3 102.8 315.2 108.4L314.8 108.7L313.9 107.7L314.3 107.4C320.6 101.6 328.8 98.4004 337.4 98.4004C346 98.4004 354.3 101.7 360.6 107.5L361 107.8L360.1 108.8L359.7 108.5Z" fill="#E2E2E2"/>
<path d="M383.7 102.401C373.4 86.7006 356.1 77.4006 337.4 77.4006C318.7 77.4006 301.4 86.7006 291.1 102.401L290.8 102.801L289.7 102.001L290 101.601C300.5 85.6006 318.2 76.1006 337.4 76.1006C356.6 76.1006 374.3 85.6006 384.8 101.601L385.1 102.101L384 102.801L383.7 102.401Z" fill="#E2E2E2"/>
<path d="M371 104.2C362.6 94.2998 350.3 88.5998 337.4 88.5998C324.5 88.5998 312.2 94.1998 303.8 104.1L303.5 104.5L302.5 103.6L302.8 103.2C311.5 93.0998 324.1 87.2998 337.4 87.2998C350.7 87.2998 363.4 93.0998 372 103.3L372.4 103.7L371.3 104.5L371 104.2Z" fill="#E2E2E2"/>
<path d="M311.5 133.8C305.4 128.1 297.5 125 289.2 125C281 125 273.1 128.1 267 133.7L266.6 134L265.7 133L266.1 132.7C272.4 126.9 280.6 123.7 289.2 123.7C297.8 123.7 306.1 126.9 312.4 132.8L312.8 133.1L311.9 134.1L311.5 133.8Z" fill="#E2E2E2"/>
<path d="M335.5 127.7C325.2 112 307.9 102.7 289.2 102.7C270.5 102.7 253.2 112 242.9 127.6L242.6 128.1L241.5 127.3L241.8 126.9C252.3 110.9 270 101.4 289.2 101.4C308.4 101.4 326.1 110.9 336.6 126.9L336.9 127.3L335.8 128.1L335.5 127.7Z" fill="#E2E2E2"/>
<path d="M322.8 129.4C314.4 119.5 302.2 113.9 289.2 113.9C276.3 113.9 264 119.5 255.6 129.4L255.3 129.8L254.3 128.9L254.6 128.5C263.3 118.4 275.9 112.5 289.2 112.5C302.5 112.5 315.2 118.4 323.8 128.6L324.2 129L323.2 129.8L322.8 129.4Z" fill="#E2E2E2"/>
<path d="M287.3 152.901C277 137.301 259.7 128.001 241 128.001C222.3 128.001 205 137.301 194.7 152.901L194.4 153.301L193.3 152.601L193.6 152.201C204.1 136.201 221.8 126.601 241 126.601C260.2 126.601 277.9 136.201 288.4 152.201L288.7 152.601L287.6 153.401L287.3 152.901Z" fill="#E2E2E2"/>
<path d="M383.7 152.901C373.4 137.301 356.1 128.001 337.4 128.001C318.7 128.001 301.4 137.301 291.1 152.901L290.8 153.301L289.7 152.601L290 152.201C300.5 136.201 318.2 126.601 337.4 126.601C356.6 126.601 374.3 136.201 384.8 152.201L385.1 152.601L384 153.401L383.7 152.901Z" fill="#E2E2E2"/>
<path d="M293.6 148.401C292.2 147.734 290.733 147.401 289.2 147.401C287.733 147.401 286.333 147.701 285 148.301L284.6 148.501L284 147.301L284.5 147.101C286.033 146.434 287.6 146.101 289.2 146.101C290.933 146.101 292.6 146.467 294.2 147.201L294.6 147.401L294.1 148.601L293.6 148.401Z" fill="#E2E2E2"/>
<path d="M301.7 140.2C298 137.6 293.7 136.2 289.2 136.2C284.8 136.2 280.5 137.6 276.8 140.1L276.4 140.4L275.7 139.3L276.1 139C280 136.3 284.5 134.9 289.2 134.9C294 134.9 298.6 136.4 302.5 139.1L302.9 139.4L302.1 140.5L301.7 140.2Z" fill="#E2E2E2"/>
<path d="M311.5 133.8C305.4 128.1 297.5 125 289.2 125C281 125 273.1 128.1 267 133.7L266.6 134L265.7 133L266.1 132.7C272.4 126.9 280.6 123.7 289.2 123.7C297.8 123.7 306.1 126.9 312.4 132.8L312.8 133.1L311.9 134.1L311.5 133.8Z" fill="#E2E2E2"/>
<path d="M335.5 127.7C325.2 112 307.9 102.7 289.2 102.7C270.5 102.7 253.2 112 242.9 127.6L242.6 128.1L241.5 127.3L241.8 126.9C252.3 110.9 270 101.4 289.2 101.4C308.4 101.4 326.1 110.9 336.6 126.9L336.9 127.3L335.8 128.1L335.5 127.7Z" fill="#E2E2E2"/>
<path d="M322.8 129.4C314.4 119.5 302.2 113.9 289.2 113.9C276.3 113.9 264 119.5 255.6 129.4L255.3 129.8L254.3 128.9L254.6 128.5C263.3 118.4 275.9 112.5 289.2 112.5C302.5 112.5 315.2 118.4 323.8 128.6L324.2 129L323.2 129.8L322.8 129.4Z" fill="#E2E2E2"/>
<path d="M245.4 173.7C244 173.034 242.533 172.7 241 172.7C239.533 172.7 238.133 173 236.8 173.6L236.4 173.8L235.8 172.6L236.3 172.4C237.833 171.734 239.4 171.4 241 171.4C242.733 171.4 244.4 171.767 246 172.5L246.4 172.7L245.9 173.9L245.4 173.7Z" fill="#E2E2E2"/>
<path d="M253.5 165.5C249.8 162.9 245.5 161.5 241 161.5C236.6 161.5 232.3 162.8 228.7 165.4L228.2 165.7L227.5 164.6L227.9 164.3C231.8 161.6 236.3 160.2 241 160.2C245.8 160.2 250.4 161.6 254.3 164.4L254.7 164.7L253.9 165.8L253.5 165.5Z" fill="#E2E2E2"/>
<path d="M263.3 159.1C257.2 153.4 249.3 150.3 241 150.3C232.8 150.3 224.9 153.4 218.8 158.9L218.4 159.3L217.5 158.3L217.9 158C224.2 152.2 232.4 149 241 149C249.6 149 257.9 152.2 264.2 158.1L264.6 158.4L263.7 159.4L263.3 159.1Z" fill="#E2E2E2"/>
<path d="M287.3 152.901C277 137.301 259.7 128.001 241 128.001C222.3 128.001 205 137.301 194.7 152.901L194.4 153.301L193.3 152.601L193.6 152.201C204.1 136.201 221.8 126.601 241 126.601C260.2 126.601 277.9 136.201 288.4 152.201L288.7 152.601L287.6 153.401L287.3 152.901Z" fill="#E2E2E2"/>
<path d="M274.6 154.7C266.2 144.8 254 139.2 241 139.2C228.1 139.2 215.8 144.8 207.4 154.7L207.1 155L206.1 154.2L206.4 153.8C215.1 143.6 227.7 137.8 241 137.8C254.4 137.8 267 143.7 275.6 153.9L276 154.2L275 155.1L274.6 154.7Z" fill="#E2E2E2"/>
<path d="M341.8 173.7C340.4 173.034 338.934 172.7 337.4 172.7C335.934 172.7 334.534 173 333.2 173.6L332.7 173.8L332.2 172.6L332.7 172.4C334.167 171.734 335.734 171.4 337.4 171.4C339.134 171.4 340.8 171.767 342.4 172.5L342.8 172.7L342.3 173.9L341.8 173.7Z" fill="#E2E2E2"/>
<path d="M349.9 165.5C346.2 162.9 341.9 161.5 337.4 161.5C333 161.5 328.7 162.8 325 165.4L324.6 165.7L323.9 164.6L324.3 164.3C328.2 161.6 332.7 160.2 337.4 160.2C342.2 160.2 346.8 161.6 350.7 164.4L351.1 164.7L350.3 165.8L349.9 165.5Z" fill="#E2E2E2"/>
<path d="M359.7 159.1C353.6 153.4 345.7 150.3 337.4 150.3C329.2 150.3 321.3 153.4 315.2 158.9L314.8 159.3L313.9 158.3L314.3 158C320.6 152.2 328.8 149 337.4 149C346 149 354.3 152.2 360.6 158.1L361 158.4L360.1 159.4L359.7 159.1Z" fill="#E2E2E2"/>
<path d="M383.7 152.901C373.4 137.301 356.1 128.001 337.4 128.001C318.7 128.001 301.4 137.301 291.1 152.901L290.8 153.301L289.7 152.601L290 152.201C300.5 136.201 318.2 126.601 337.4 126.601C356.6 126.601 374.3 136.201 384.8 152.201L385.1 152.601L384 153.401L383.7 152.901Z" fill="#E2E2E2"/>
<path d="M371 154.7C362.6 144.8 350.3 139.2 337.4 139.2C324.5 139.2 312.2 144.8 303.8 154.7L303.5 155L302.5 154.2L302.8 153.8C311.5 143.6 324.1 137.8 337.4 137.8C350.7 137.8 363.4 143.7 372 153.9L372.4 154.2L371.3 155.1L371 154.7Z" fill="#E2E2E2"/>
<path d="M293.6 199.001C292.2 198.334 290.733 198.001 289.2 198.001C287.733 198.001 286.333 198.301 285 198.901L284.6 199.101L284 197.801L284.5 197.601C286.033 196.934 287.6 196.601 289.2 196.601C290.933 196.601 292.6 197.001 294.2 197.801L294.6 198.001L294.1 199.201L293.6 199.001Z" fill="#E2E2E2"/>
<path d="M301.7 190.8C298 188.2 293.7 186.8 289.2 186.8C284.8 186.8 280.5 188.1 276.8 190.7L276.4 190.9L275.7 189.8L276.1 189.6C280 186.9 284.5 185.5 289.2 185.5C294 185.5 298.6 186.9 302.5 189.7L302.9 190L302.1 191.1L301.7 190.8Z" fill="#E2E2E2"/>
<path d="M311.5 184.3C305.4 178.7 297.5 175.6 289.2 175.6C281 175.6 273.1 178.7 267 184.2L266.6 184.6L265.7 183.6L266.1 183.2C272.4 177.5 280.6 174.3 289.2 174.3C297.8 174.3 306.1 177.5 312.4 183.4L312.8 183.7L311.9 184.7L311.5 184.3Z" fill="#E2E2E2"/>
<path d="M335.5 178.2C325.2 162.6 307.9 153.3 289.2 153.3C270.5 153.3 253.2 162.6 242.9 178.2L242.6 178.6L241.5 177.9L241.8 177.5C252.3 161.5 270 151.9 289.2 151.9C308.4 151.9 326.1 161.5 336.6 177.5L336.9 177.9L335.8 178.6L335.5 178.2Z" fill="#E2E2E2"/>
<path d="M322.8 180.001C314.4 170.101 302.1 164.401 289.2 164.401C276.3 164.401 264 170.101 255.6 179.901L255.3 180.301L254.3 179.501L254.6 179.101C263.3 168.901 275.9 163.101 289.2 163.101C302.5 163.101 315.2 169.001 323.8 179.201L324.2 179.501L323.2 180.401L322.8 180.001Z" fill="#E2E2E2"/>
<path d="M245.4 224.2C244 223.6 242.533 223.3 241 223.3C239.533 223.3 238.133 223.567 236.8 224.1L236.4 224.3L235.8 223.1L236.3 222.9C237.833 222.234 239.4 221.9 241 221.9C242.733 221.9 244.4 222.267 246 223L246.4 223.3L245.9 224.5L245.4 224.2Z" fill="#E2E2E2"/>
<path d="M253.5 216.1C249.8 213.4 245.5 212.1 241 212.1C236.6 212.1 232.3 213.4 228.7 215.9L228.2 216.2L227.5 215.1L227.9 214.8C231.8 212.2 236.3 210.7 241 210.7C245.8 210.7 250.4 212.2 254.3 215L254.7 215.3L253.9 216.3L253.5 216.1Z" fill="#E2E2E2"/>
<path d="M263.3 209.601C257.2 204.001 249.3 200.901 241 200.901C232.8 200.901 224.9 204.001 218.8 209.501L218.4 209.801L217.5 208.901L217.9 208.501C224.2 202.701 232.4 199.601 241 199.601C249.6 199.601 257.9 202.801 264.2 208.601L264.6 209.001L263.7 210.001L263.3 209.601Z" fill="#E2E2E2"/>
<path d="M287.3 203.5C277 187.9 259.7 178.5 241 178.5C222.3 178.5 205 187.9 194.7 203.5L194.4 203.9L193.3 203.2L193.6 202.8C204.1 186.8 221.8 177.2 241 177.2C260.2 177.2 277.9 186.8 288.4 202.8L288.7 203.2L287.6 203.9L287.3 203.5Z" fill="#E2E2E2"/>
<path d="M274.6 205.3C266.2 195.4 254 189.7 241 189.7C228.1 189.7 215.8 195.4 207.4 205.2L207.1 205.6L206.1 204.8L206.4 204.4C215.1 194.2 227.7 188.4 241 188.4C254.4 188.4 267 194.2 275.6 204.4L276 204.8L275 205.7L274.6 205.3Z" fill="#E2E2E2"/>
<path d="M311.5 234.9C305.4 229.3 297.5 226.2 289.2 226.2C281 226.2 273.1 229.2 267 234.8L266.6 235.1L265.7 234.2L266.1 233.8C272.4 228 280.6 224.9 289.2 224.9C297.8 224.9 306.1 228.1 312.4 233.9L312.8 234.3L311.9 235.2L311.5 234.9Z" fill="#E2E2E2"/>
<path d="M335.5 228.8C325.2 213.2 307.9 203.8 289.2 203.8C270.5 203.8 253.2 213.2 242.9 228.8L242.6 229.2L241.5 228.5L241.8 228C252.3 212.1 270 202.5 289.2 202.5C308.4 202.5 326.1 212.1 336.6 228.1L336.9 228.5L335.8 229.2L335.5 228.8Z" fill="#E2E2E2"/>
<path d="M322.8 230.6C314.4 220.7 302.1 215 289.2 215C276.3 215 264 220.7 255.6 230.5L255.3 230.9L254.3 230L254.6 229.7C263.3 219.5 275.9 213.7 289.2 213.7C302.5 213.7 315.2 219.5 323.8 229.7L324.2 230.1L323.2 231L322.8 230.6Z" fill="#E2E2E2"/>
<path d="M293.6 249.5C292.2 248.834 290.733 248.5 289.2 248.5C287.733 248.5 286.333 248.8 285 249.4L284.6 249.6L284 248.4L284.5 248.2C286.033 247.534 287.6 247.2 289.2 247.2C290.933 247.2 292.6 247.567 294.2 248.3L294.6 248.5L294.1 249.7L293.6 249.5Z" fill="#E2E2E2"/>
<path d="M301.7 241.3C298 238.7 293.7 237.4 289.2 237.4C284.8 237.4 280.5 238.7 276.8 241.2L276.4 241.5L275.7 240.4L276.1 240.1C280 237.4 284.5 236 289.2 236C294 236 298.6 237.5 302.5 240.2L302.9 240.5L302.1 241.6L301.7 241.3Z" fill="#E2E2E2"/>
<path d="M311.5 234.9C305.4 229.3 297.5 226.2 289.2 226.2C281 226.2 273.1 229.2 267 234.8L266.6 235.1L265.7 234.2L266.1 233.8C272.4 228 280.6 224.9 289.2 224.9C297.8 224.9 306.1 228.1 312.4 233.9L312.8 234.3L311.9 235.2L311.5 234.9Z" fill="#E2E2E2"/>
<path d="M335.5 228.8C325.2 213.2 307.9 203.8 289.2 203.8C270.5 203.8 253.2 213.2 242.9 228.8L242.6 229.2L241.5 228.5L241.8 228C252.3 212.1 270 202.5 289.2 202.5C308.4 202.5 326.1 212.1 336.6 228.1L336.9 228.5L335.8 229.2L335.5 228.8Z" fill="#E2E2E2"/>
<path d="M322.8 230.6C314.4 220.7 302.1 215 289.2 215C276.3 215 264 220.7 255.6 230.5L255.3 230.9L254.3 230L254.6 229.7C263.3 219.5 275.9 213.7 289.2 213.7C302.5 213.7 315.2 219.5 323.8 229.7L324.2 230.1L323.2 231L322.8 230.6Z" fill="#E2E2E2"/>
<path d="M341.8 123.1C340.4 122.433 338.934 122.1 337.4 122.1C335.934 122.1 334.534 122.4 333.2 123L332.7 123.2L332.2 122L332.7 121.8C334.167 121.133 335.734 120.8 337.4 120.8C339.134 120.8 340.8 121.167 342.4 121.9L342.8 122.1L342.3 123.3L341.8 123.1Z" fill="#E2E2E2"/>
<path d="M349.9 114.901C346.2 112.301 341.9 110.901 337.4 110.901C333 110.901 328.7 112.301 325 114.801L324.6 115.101L323.9 114.001L324.3 113.701C328.2 111.001 332.7 109.601 337.4 109.601C342.2 109.601 346.8 111.101 350.7 113.801L351.1 114.101L350.3 115.201L349.9 114.901Z" fill="#E2E2E2"/>
<path d="M359.7 108.5C353.6 102.9 345.7 99.8004 337.4 99.8004C329.2 99.8004 321.3 102.8 315.2 108.4L314.8 108.7L313.9 107.7L314.3 107.4C320.6 101.6 328.8 98.4004 337.4 98.4004C346 98.4004 354.3 101.7 360.6 107.5L361 107.8L360.1 108.8L359.7 108.5Z" fill="#E2E2E2"/>
<path d="M383.7 102.401C373.4 86.7006 356.1 77.4006 337.4 77.4006C318.7 77.4006 301.4 86.7006 291.1 102.401L290.8 102.801L289.7 102.001L290 101.601C300.5 85.6006 318.2 76.1006 337.4 76.1006C356.6 76.1006 374.3 85.6006 384.8 101.601L385.1 102.101L384 102.801L383.7 102.401Z" fill="#E2E2E2"/>
<path d="M371 104.2C362.6 94.2998 350.3 88.5998 337.4 88.5998C324.5 88.5998 312.2 94.1998 303.8 104.1L303.5 104.5L302.5 103.6L302.8 103.2C311.5 93.0998 324.1 87.2998 337.4 87.2998C350.7 87.2998 363.4 93.0998 372 103.3L372.4 103.7L371.3 104.5L371 104.2Z" fill="#E2E2E2"/>
<path d="M407.899 133.8C401.799 128.1 393.9 125 385.6 125C377.3 125 369.499 128.1 363.399 133.7L363 134L362.1 133L362.5 132.7C368.8 126.9 377 123.7 385.6 123.7C394.2 123.7 402.5 126.9 408.8 132.8L409.199 133.1L408.3 134.1L407.899 133.8Z" fill="#E2E2E2"/>
<path d="M431.9 127.7C421.6 112 404.3 102.7 385.6 102.7C366.9 102.7 349.6 112 339.3 127.6L339 128.1L337.9 127.3L338.2 126.9C348.7 110.9 366.4 101.4 385.6 101.4C404.7 101.4 422.5 110.9 433 126.9L433.3 127.3L432.2 128.1L431.9 127.7Z" fill="#E2E2E2"/>
<path d="M419.2 129.4C410.8 119.5 398.5 113.9 385.6 113.9C372.7 113.9 360.4 119.5 352 129.4L351.7 129.8L350.7 128.9L351 128.5C359.7 118.4 372.3 112.5 385.6 112.5C398.9 112.5 411.6 118.4 420.2 128.6L420.5 129L419.5 129.8L419.2 129.4Z" fill="#E2E2E2"/>
<path d="M383.7 152.901C373.4 137.301 356.1 128.001 337.4 128.001C318.7 128.001 301.4 137.301 291.1 152.901L290.8 153.301L289.7 152.601L290 152.201C300.5 136.201 318.2 126.601 337.4 126.601C356.6 126.601 374.3 136.201 384.8 152.201L385.1 152.601L384 153.401L383.7 152.901Z" fill="#E2E2E2"/>
<path d="M390 148.401C388.6 147.734 387.134 147.401 385.601 147.401C384.134 147.401 382.734 147.701 381.4 148.301L380.9 148.501L380.4 147.301L380.9 147.101C382.367 146.434 383.934 146.101 385.601 146.101C387.334 146.101 389.001 146.467 390.601 147.201L391 147.401L390.4 148.601L390 148.401Z" fill="#E2E2E2"/>
<path d="M398.1 140.2C394.4 137.6 390.1 136.2 385.6 136.2C381.2 136.2 376.899 137.6 373.199 140.1L372.8 140.4L372.1 139.3L372.5 139C376.4 136.3 380.9 134.9 385.6 134.9C390.4 134.9 394.999 136.4 398.899 139.1L399.3 139.4L398.5 140.5L398.1 140.2Z" fill="#E2E2E2"/>
<path d="M407.899 133.8C401.799 128.1 393.9 125 385.6 125C377.3 125 369.499 128.1 363.399 133.7L363 134L362.1 133L362.5 132.7C368.8 126.9 377 123.7 385.6 123.7C394.2 123.7 402.5 126.9 408.8 132.8L409.199 133.1L408.3 134.1L407.899 133.8Z" fill="#E2E2E2"/>
<path d="M431.9 127.7C421.6 112 404.3 102.7 385.6 102.7C366.9 102.7 349.6 112 339.3 127.6L339 128.1L337.9 127.3L338.2 126.9C348.7 110.9 366.4 101.4 385.6 101.4C404.7 101.4 422.5 110.9 433 126.9L433.3 127.3L432.2 128.1L431.9 127.7Z" fill="#E2E2E2"/>
<path d="M419.2 129.4C410.8 119.5 398.5 113.9 385.6 113.9C372.7 113.9 360.4 119.5 352 129.4L351.7 129.8L350.7 128.9L351 128.5C359.7 118.4 372.3 112.5 385.6 112.5C398.9 112.5 411.6 118.4 420.2 128.6L420.5 129L419.5 129.8L419.2 129.4Z" fill="#E2E2E2"/>
<path d="M341.8 173.7C340.4 173.034 338.934 172.7 337.4 172.7C335.934 172.7 334.534 173 333.2 173.6L332.7 173.8L332.2 172.6L332.7 172.4C334.167 171.734 335.734 171.4 337.4 171.4C339.134 171.4 340.8 171.767 342.4 172.5L342.8 172.7L342.3 173.9L341.8 173.7Z" fill="#E2E2E2"/>
<path d="M349.9 165.5C346.2 162.9 341.9 161.5 337.4 161.5C333 161.5 328.7 162.8 325 165.4L324.6 165.7L323.9 164.6L324.3 164.3C328.2 161.6 332.7 160.2 337.4 160.2C342.2 160.2 346.8 161.6 350.7 164.4L351.1 164.7L350.3 165.8L349.9 165.5Z" fill="#E2E2E2"/>
<path d="M359.7 159.1C353.6 153.4 345.7 150.3 337.4 150.3C329.2 150.3 321.3 153.4 315.2 158.9L314.8 159.3L313.9 158.3L314.3 158C320.6 152.2 328.8 149 337.4 149C346 149 354.3 152.2 360.6 158.1L361 158.4L360.1 159.4L359.7 159.1Z" fill="#E2E2E2"/>
<path d="M383.7 152.901C373.4 137.301 356.1 128.001 337.4 128.001C318.7 128.001 301.4 137.301 291.1 152.901L290.8 153.301L289.7 152.601L290 152.201C300.5 136.201 318.2 126.601 337.4 126.601C356.6 126.601 374.3 136.201 384.8 152.201L385.1 152.601L384 153.401L383.7 152.901Z" fill="#E2E2E2"/>
<path d="M371 154.7C362.6 144.8 350.3 139.2 337.4 139.2C324.5 139.2 312.2 144.8 303.8 154.7L303.5 155L302.5 154.2L302.8 153.8C311.5 143.6 324.1 137.8 337.4 137.8C350.7 137.8 363.4 143.7 372 153.9L372.4 154.2L371.3 155.1L371 154.7Z" fill="#E2E2E2"/>
<path d="M390 199.001C388.6 198.334 387.134 198.001 385.601 198.001C384.134 198.001 382.734 198.301 381.4 198.901L380.9 199.101L380.4 197.801L380.9 197.601C382.367 196.934 383.934 196.601 385.601 196.601C387.334 196.601 389.001 197.001 390.601 197.801L391 198.001L390.4 199.201L390 199.001Z" fill="#E2E2E2"/>
<path d="M398.1 190.8C394.4 188.2 390.1 186.8 385.6 186.8C381.2 186.8 376.899 188.1 373.199 190.7L372.8 190.9L372.1 189.8L372.5 189.6C376.4 186.9 380.9 185.5 385.6 185.5C390.4 185.5 394.999 186.9 398.899 189.7L399.3 190L398.5 191.1L398.1 190.8Z" fill="#E2E2E2"/>
<path d="M407.899 184.3C401.799 178.7 393.9 175.6 385.6 175.6C377.3 175.6 369.499 178.7 363.399 184.2L363 184.6L362.1 183.6L362.5 183.2C368.8 177.5 377 174.3 385.6 174.3C394.2 174.3 402.4 177.5 408.8 183.4L409.199 183.7L408.3 184.7L407.899 184.3Z" fill="#E2E2E2"/>
<path d="M431.9 178.2C421.6 162.6 404.3 153.3 385.6 153.3C366.9 153.3 349.6 162.6 339.3 178.2L339 178.6L337.9 177.9L338.2 177.5C348.7 161.5 366.4 151.9 385.6 151.9C404.7 151.9 422.5 161.5 433 177.5L433.3 177.9L432.2 178.6L431.9 178.2Z" fill="#E2E2E2"/>
<path d="M419.2 180.001C410.8 170.101 398.5 164.401 385.6 164.401C372.7 164.401 360.4 170.101 352 179.901L351.7 180.301L350.7 179.501L351 179.101C359.7 168.901 372.3 163.101 385.6 163.101C398.9 163.101 411.6 169.001 420.2 179.201L420.5 179.501L419.5 180.401L419.2 180.001Z" fill="#E2E2E2"/>
</svg>
