<svg width="34" height="30" viewBox="0 0 34 30" fill="none" xmlns="http://www.w3.org/2000/svg">
<path fill-rule="evenodd" clip-rule="evenodd" d="M33.1001 15.4C33.2001 16.7 32.4001 17.5001 31.3001 17.7001C29.7001 18.1001 28.1001 18.3668 26.5001 18.5001C24.1001 18.7001 21.8001 18.8 19.4001 18.9C19.2001 18.9 19.2001 18.9001 19.2001 18.7001C19.2001 18.3001 19.2001 17.9001 19.2001 17.5001C19.2001 16.7001 18.6001 16 17.8001 15.9C17.1334 15.9 16.4667 15.9334 15.8001 16.0001C15.1001 16.0001 14.5001 16.7 14.5001 17.4C14.5001 17.8667 14.5001 18.3335 14.5001 18.8002L14.4001 18.9C12.2001 18.8 10.0001 18.7002 7.80008 18.6002C6.00008 18.4669 4.20009 18.2002 2.40009 17.8002C1.50009 17.5002 0.900073 17.0002 0.700073 16.1002C0.633407 15.9002 0.600098 15.7335 0.600098 15.6002C0.600098 13.1335 0.600098 10.6667 0.600098 8.20006C0.600098 7.10006 1.20008 6.5001 2.30008 6.5001C4.30008 6.5001 6.33342 6.5001 8.40009 6.5001L8.50009 6.40001C8.50009 5.60001 8.50009 4.8001 8.50009 4.0001C8.50009 3.93344 8.46675 3.90001 8.40009 3.90001C8.10009 3.50001 7.90009 3.0001 8.00009 2.5001C8.00009 2.1001 8.30007 1.80006 8.70007 1.70006C10.5667 0.900055 12.5334 0.400055 14.6001 0.200055C16.8001 5.54174e-05 19.1001 0.100202 21.3001 0.600202C22.6001 0.900202 23.8001 1.30006 25.0001 1.70006C25.7001 1.90006 26.0001 2.60006 25.7001 3.20006C25.6001 3.50006 25.4001 3.70001 25.2001 3.90001C25.2001 3.96667 25.2001 4.0001 25.2001 4.0001C25.2001 4.8001 25.2001 5.56682 25.2001 6.30015C25.2001 6.50015 25.2001 6.5001 25.4001 6.5001C27.4001 6.5001 29.4001 6.5001 31.4001 6.5001C32.5001 6.5001 33.1001 7.10006 33.1001 8.20006C33.1001 9.40006 33.1001 10.6333 33.1001 11.9C33.1001 13.1 33.1001 14.3 33.1001 15.4ZM9.40009 6.40001C9.40009 6.50001 9.40009 6.5001 9.50009 6.5001C11.9668 6.5001 14.4334 6.5001 16.9001 6.5001C19.3001 6.5001 21.7334 6.5001 24.2001 6.5001C24.3001 6.5001 24.3001 6.50001 24.3001 6.40001C24.3001 5.80001 24.3001 5.2002 24.3001 4.6002C24.4001 4.3002 24.3001 4.1002 24.0001 4.1002C24.0001 4.1002 23.9668 4.06677 23.9001 4.0001C23.4334 3.8001 22.9668 3.56682 22.5001 3.30015C21.3001 2.76682 20.0334 2.43349 18.7001 2.30015C15.8001 1.90015 13.1001 2.4002 10.6001 3.6002C10.2001 3.8002 9.83342 3.96687 9.50009 4.1002C9.40009 4.2002 9.40009 4.20015 9.40009 4.30015C9.40009 4.96682 9.40009 5.66667 9.40009 6.40001Z" fill="#EBCC83"/>
<path d="M1.80005 18.5C2.90005 18.7 4.00004 18.9001 5.20004 19.1001C6.60004 19.3001 8.03339 19.4333 9.50006 19.5C11.1001 19.6 12.7 19.7 14.3 19.7C14.5 19.7 14.5001 19.7999 14.5001 19.8999C14.5001 20.4999 14.5001 21.1 14.6001 21.7C14.8001 22.7 15.7 23.2999 16.7 23.3999C17.6 23.4999 18.6001 23 19.0001 22C19.1334 21.7333 19.2 21.4334 19.2 21.1001C19.2 20.7001 19.2 20.3 19.2 19.8L19.3 19.7C21.5 19.6 23.7001 19.4999 26.0001 19.3999C27.3001 19.2999 28.7001 19 30.0001 18.8C30.7001 18.7 31.3001 18.6 31.9001 18.5C31.9001 18.5 31.9001 18.5334 31.9001 18.6001C31.9001 21.8001 31.9001 25 31.9001 28.2C31.9001 29.2 31.2 29.8 30.3 29.8C27.3667 29.8 24.4001 29.8 21.4001 29.8C15.5334 29.8 9.63338 29.8 3.70004 29.8C3.00004 29.8 2.40007 29.7001 2.10007 29.1001C1.90007 28.9001 1.80005 28.6 1.80005 28.3C1.80005 25.0334 1.80005 21.7667 1.80005 18.5Z" fill="#D2A437"/>
<path d="M18.4001 19.3997C18.4001 19.9997 18.4001 20.5997 18.4001 21.1997C18.3001 21.9997 17.6 22.5999 16.8 22.5999C16 22.5999 15.4 21.8999 15.3 21.0999C15.3 19.8999 15.3 18.6998 15.3 17.4998C15.3 16.9998 15.6001 16.7998 16.1001 16.7998C16.5667 16.7998 17.0667 16.7998 17.6001 16.7998C18.1001 16.7998 18.4001 16.9998 18.4001 17.4998C18.4001 18.1664 18.4001 18.7997 18.4001 19.3997Z" fill="#EBCC83"/>
</svg>
