<svg width="37" height="37" viewBox="0 0 37 37" fill="none" xmlns="http://www.w3.org/2000/svg">
<path d="M18.3 36.8003C8.19999 36.8003 0 28.6002 0 18.5002C0 8.40024 8.19999 0.200195 18.3 0.200195C28.4 0.200195 36.6 8.40024 36.6 18.5002C36.6 28.6002 28.4 36.8003 18.3 36.8003Z" fill="url(#paint0_linear_17_15609)"/>
<path d="M20.5999 22.6003H15.0999V22.1003C15.0999 21.167 15.2332 20.4004 15.4999 19.8004C15.6999 19.2671 15.9999 18.7337 16.3999 18.2003C16.7999 17.7337 17.7332 16.9003 19.1999 15.7003C19.9332 15.1003 20.2999 14.5337 20.2999 14.0004C20.2999 13.467 20.1666 13.0671 19.8999 12.8004C19.5666 12.4671 19.0999 12.3004 18.4999 12.3004C17.8332 12.3004 17.2666 12.5337 16.7999 13.0004C16.3332 13.467 16.0332 14.2671 15.8999 15.4004L10.3999 14.7003C10.5999 12.6337 11.3332 10.967 12.5999 9.70032C13.8666 8.50032 15.8666 7.90039 18.5999 7.90039C20.6666 7.90039 22.3332 8.33365 23.5999 9.20032C25.3332 10.3337 26.1999 11.9004 26.1999 13.9004C26.1999 14.7004 25.9666 15.467 25.4999 16.2003C25.0332 16.9337 24.1332 17.867 22.7999 19.0004C21.7999 19.7337 21.1666 20.3337 20.8999 20.8004C20.6999 21.2671 20.5999 21.867 20.5999 22.6003ZM14.9999 24.1003H20.7999V29.2003H14.9999V24.1003Z" fill="white"/>
<defs>
<linearGradient id="paint0_linear_17_15609" x1="27.946" y1="-18.1299" x2="52.3971" y2="33.9012" gradientUnits="userSpaceOnUse">
<stop stop-color="#D2A437"/>
<stop offset="1" stop-color="#D2A437"/>
</linearGradient>
</defs>
</svg>
