<svg width="36" height="31" viewBox="0 0 36 31" fill="none" xmlns="http://www.w3.org/2000/svg">
<path fill-rule="evenodd" clip-rule="evenodd" d="M35.9 30.6001C35.9 30.9001 35.7 31 35.5 31C32.5666 31 29.6666 31 26.8 31H18.3C12.5666 31 6.83331 31 1.09998 31C0.899976 31 0.699951 30.8001 0.699951 30.6001C0.699951 30.4001 0.899976 30.2 1.09998 30.2C1.49998 30.2 1.89996 30.2 2.29996 30.2H6.09998C6.19998 30.2 6.19995 30.2001 6.19995 30.1001C6.19995 25.5001 6.19995 20.8667 6.19995 16.2C6.19995 16.0667 6.19995 15.9 6.19995 15.7C6.26662 15.6333 6.29996 15.6001 6.29996 15.6001C6.69996 15.2668 7.09997 14.9335 7.49997 14.6001C8.76664 13.6001 10.0333 12.6001 11.3 11.6001C13.3 10.0001 15.3 8.43328 17.3 6.89995C17.5666 6.63328 17.8666 6.4 18.2 6.2C18.3 6.1 18.3 6.1 18.4 6.2C18.7333 6.46667 19.0666 6.69995 19.4 6.89995C20.4666 7.76662 21.5333 8.63338 22.6 9.50005C24.7333 11.1667 26.8666 12.8668 29 14.6001C29.4 14.9335 29.8 15.2334 30.2 15.5C30.2666 15.5667 30.3 15.6333 30.3 15.7C30.3 19.1 30.3 22.4668 30.3 25.8001C30.3 27.2001 30.3 28.6 30.3 30C30.3 30.3 30.3 30.2 30.5 30.2C32.0333 30.2 33.5666 30.2 35.1 30.2C35.2333 30.2 35.3666 30.2 35.5 30.2C35.7 30.2 35.9 30.5001 35.9 30.6001ZM25.3 20.1001C25.4 16.1001 22.2 13 18.3 13C14.4 13 11.3 16.2001 11.3 20.1001C11.3 23.9001 14.4 27.1001 18.3 27.1001C22.1 27.1001 25.3 24.0001 25.3 20.1001Z" fill="#D2A437"/>
<path d="M18.2998 0.799805C18.6998 0.799805 19.0665 0.93304 19.3999 1.19971C20.5999 2.13304 21.7999 3.06642 22.9999 3.99976C24.2665 4.99976 25.5665 6.03319 26.8999 7.09985C28.6332 8.43319 30.3665 9.79971 32.0999 11.1997C32.6999 11.6664 33.3332 12.1664 33.9999 12.6997C34.5999 13.0997 34.7998 13.7998 34.6998 14.4998C34.5665 15.2331 34.1332 15.7331 33.3999 15.9998C32.7999 16.1998 32.2332 16.0665 31.6998 15.5999C30.0332 14.2665 28.3332 12.9332 26.5999 11.5999C25.1332 10.4665 23.6665 9.33304 22.1998 8.19971C20.9998 7.19971 19.7999 6.23314 18.5999 5.2998C18.3999 5.0998 18.1999 5.0998 17.9999 5.2998C17.5999 5.63314 17.1998 5.93304 16.7998 6.19971C15.6665 7.13304 14.4998 8.06642 13.2998 8.99976C12.2998 9.79976 11.2665 10.5997 10.1998 11.3997C8.79984 12.533 7.4332 13.633 6.09986 14.6997C5.69986 15.033 5.26651 15.3664 4.79984 15.6997C3.99984 16.3997 2.59986 16.0999 2.09986 15.0999C1.69986 14.2999 1.89986 13.2997 2.59986 12.6997C3.9332 11.633 5.26653 10.5664 6.59986 9.49976C7.59986 8.76642 8.56652 7.99971 9.49986 7.19971C11.2332 5.86637 12.9332 4.53304 14.5999 3.19971C15.4665 2.53304 16.3332 1.86637 17.1998 1.19971C17.5332 0.93304 17.8998 0.799805 18.2998 0.799805Z" fill="#D2A437"/>
<path d="M18.3 14C15 14 12.3 16.7 12.3 20C12.3 23.3 15 26 18.3 26C21.6 26 24.3 23.3 24.3 20C24.3 16.7 21.6 14 18.3 14Z" fill="#EBCC83"/>
</svg>
