<svg width="37" height="33" viewBox="0 0 37 33" fill="none" xmlns="http://www.w3.org/2000/svg">
<path fill-rule="evenodd" clip-rule="evenodd" d="M11.9999 20.1995C11.1999 19.1995 10.3999 18.1995 9.5999 17.1995C9.4999 17.0995 9.4999 16.9995 9.5999 16.9995C10.3332 15.5995 11.1666 14.2662 12.0999 12.9995C14.0999 10.3995 16.3999 7.99961 19.0999 6.09961C20.3666 5.09961 21.7332 4.23285 23.1999 3.49951C24.4665 2.89951 25.7332 2.36608 26.9999 1.89941C27.9999 1.59941 28.8999 1.39961 29.8999 1.09961C29.9999 1.09961 29.9999 1.09946 30.0999 1.19946C30.7666 2.99946 31.7999 4.53289 33.1999 5.79956C33.6999 6.19956 34.1999 6.59951 34.6999 6.99951C34.6999 7.09951 34.7999 7.09946 34.6999 7.19946C34.1999 8.09946 33.7999 8.89956 33.2999 9.79956C32.4999 11.1329 31.5666 12.3662 30.4999 13.4995C28.6332 15.6995 26.4999 17.5663 24.0999 19.0996C22.4999 20.1663 20.7999 21.0662 18.9999 21.7996C17.8999 22.2996 16.5999 22.6995 15.3999 23.1995C15.1999 23.2661 14.9665 23.3327 14.6999 23.3994C14.5999 23.3994 14.4999 23.3996 14.3999 23.2996C13.5999 22.2996 12.7999 21.2661 11.9999 20.1995ZM21.8999 12.2996C23.1999 13.8996 25.3999 14.1995 26.9999 12.9995C28.5999 11.6995 28.8999 9.49941 27.6999 7.89941C26.3999 6.29941 24.1999 5.99946 22.5999 7.19946C20.8999 8.49946 20.6999 10.7996 21.8999 12.2996Z" fill="#D2A437"/>
<path d="M13 32.0999C13.2 31.8332 13.4333 31.5665 13.7 31.2998C14.3 30.4998 14.9 29.5999 15.3 28.5999C15.7 27.7999 15.8 26.8997 16 25.8997C16 25.2997 16.0333 24.6999 16.1 24.0999C16.1 23.9999 16.1 23.8997 16.3 23.8997C17.2 23.4997 18.2 23.1998 19.1 22.7998C20.1667 22.3331 21.2 21.8331 22.2 21.2998C22.8 20.9998 23.4 20.5998 24 20.2998C24 20.2998 24.0333 20.2998 24.1 20.2998C24.0333 20.3665 24 20.4665 24 20.5999C23.9 21.7999 23.7 22.8999 23.4 24.0999C23.1 25.3999 22.4 26.4998 21.4 27.4998C20.6 28.1998 19.7 28.7997 18.8 29.3997C17.7333 29.9997 16.6333 30.5665 15.5 31.0999C14.7 31.4332 13.8667 31.7997 13 32.1997C13 32.133 13 32.0999 13 32.0999Z" fill="#D2A437"/>
<path d="M14.7 8.49967C14.2333 9.033 13.7666 9.56644 13.3 10.0998C12.3666 11.0998 11.5 12.1664 10.7 13.2997C10.3 13.9664 9.86663 14.6331 9.39996 15.2997C9.39996 15.3997 9.29996 15.3996 9.29996 15.3996C8.39996 15.2996 7.59996 15.0998 6.79996 15.0998C5.29996 14.8998 3.89997 15.1996 2.49997 15.6996C1.89997 15.9996 1.39996 16.2998 0.799957 16.5998C0.733291 16.5998 0.699951 16.5998 0.699951 16.5998C0.766618 16.3998 0.866636 16.2331 0.999969 16.0998C1.46664 15.4331 1.9333 14.7664 2.39996 14.0998C3.46663 12.6998 4.66664 11.4331 5.99997 10.2997C6.79997 9.56639 7.69995 8.99977 8.69995 8.59977C9.49995 8.39977 10.2 8.29972 11 8.29972C12.2 8.19972 13.5 8.39967 14.7 8.49967Z" fill="#D2A437"/>
<path d="M10.7 23.1995C10.6 23.5995 10.5 23.9996 10.3 24.2996C9.69996 25.7996 8.69996 26.7996 7.39996 27.5996C5.49996 28.6996 3.49996 28.9996 1.39996 28.7996C1.3333 28.7996 1.26662 28.7996 1.19995 28.7996C1.26662 28.5329 1.29996 28.2996 1.29996 28.0996C1.49996 26.8329 1.93331 25.6663 2.59998 24.5996C3.39998 23.3996 4.29998 22.3995 5.59998 21.6995C6.53331 21.1661 7.53331 20.8994 8.59998 20.8994C8.66664 20.8994 8.76663 20.8994 8.89996 20.8994C8.59996 20.9994 8.29998 21.0995 8.09998 21.1995C7.39998 21.3995 6.79996 21.8994 6.39996 22.3994C5.59996 23.3994 5.19997 24.4996 4.99997 25.7996C4.99997 25.7996 5.03331 25.7996 5.09998 25.7996C6.03331 25.9329 6.93329 25.8663 7.79996 25.5996C8.69996 25.2996 9.49998 24.7995 10.1 23.9995C10.3 23.7995 10.4 23.5996 10.6 23.2996C10.6 23.2996 10.6 23.2661 10.6 23.1995C10.6666 23.1995 10.7 23.1995 10.7 23.1995Z" fill="#EBCC83"/>
<path d="M35.2 6.19974C34 5.29974 32.9 4.29988 32.1 3.09988C31.7 2.43322 31.3333 1.76655 31 1.09988C31 0.899882 31 0.899834 31.2 0.799834C32.8666 0.533167 34.5333 0.466549 36.2 0.599882C36.3333 0.599882 36.4667 0.599882 36.6 0.599882C36.7333 0.599882 36.8 0.633069 36.8 0.699736C36.6 1.9664 36.2667 3.23312 35.8 4.49978C35.6667 4.96645 35.5 5.46645 35.3 5.99978C35.2333 6.06645 35.2 6.13307 35.2 6.19974Z" fill="#EBCC83"/>
<path d="M12.9 24.0995C11.4333 22.2328 9.96667 20.3661 8.5 18.4994C8.8 18.1994 9.3 18.1994 9.5 18.4994C10.7 20.0327 11.9 21.5327 13.1 22.9994C13.1667 23.1327 13.2333 23.266 13.3 23.3993C13.4 23.6993 13.1 23.8995 12.9 24.0995Z" fill="#EBCC83"/>
<path d="M22.7999 11.6999C21.8999 10.5999 22.0999 9.00003 23.1999 8.10003C24.2999 7.20003 25.8999 7.39994 26.7999 8.49994C27.5999 9.49994 27.6 11.2 26.4 12.1C25.3 13 23.6999 12.7999 22.7999 11.6999Z" fill="#EBCC83"/>
</svg>
