<svg width="38" height="35" viewBox="0 0 38 35" fill="none" xmlns="http://www.w3.org/2000/svg">
<path d="M0.199707 32.5C0.599707 32.5 1.03303 32.5 1.49969 32.5C1.49969 30.5667 1.49969 28.6667 1.49969 26.8C2.89969 26.8 4.33308 26.8 5.79974 26.8C5.79974 28.6667 5.79974 30.5667 5.79974 32.5C6.06641 32.5 6.29969 32.5 6.49969 32.5C6.59969 32.5 6.59967 32.4 6.59967 32.3C6.59967 32.1 6.59967 31.9 6.59967 31.7C6.59967 29.0333 6.59967 26.4 6.59967 23.8C6.59967 23.6667 6.59967 23.5667 6.59967 23.5C6.733 23.5 6.83305 23.5 6.89972 23.5C8.16639 23.5 9.4331 23.5 10.6998 23.5C10.8998 23.5 10.8997 23.5 10.8997 23.7C10.8997 26.4333 10.8997 29.1666 10.8997 31.8999C10.8997 32.0999 10.8997 32.3 10.8997 32.5C11.2331 32.5 11.5331 32.5 11.7997 32.5C11.7997 27.7667 11.7997 23.0334 11.7997 18.3C13.1997 18.3 14.633 18.3 16.0997 18.3C16.0997 23.0334 16.0997 27.7667 16.0997 32.5C16.3663 32.5 16.6331 32.5 16.8997 32.5C16.8997 32.5 16.9997 32.4 16.9997 32.3C16.9997 31.5 16.9997 30.6667 16.9997 29.8C16.9997 27.4667 16.9997 25.1334 16.9997 22.8C16.9997 22.6667 16.9997 22.5667 16.9997 22.5C18.3997 22.5 19.7998 22.5 21.1998 22.5C21.1998 22.6333 21.1998 22.7334 21.1998 22.8C21.1998 25.9334 21.1998 29.0666 21.1998 32.2C21.1998 32.5 21.1997 32.5 21.4997 32.5C21.633 32.5 21.7997 32.5 21.9997 32.5C22.0664 32.5 22.0997 32.4334 22.0997 32.3C22.0997 29.3 22.0997 26.2666 22.0997 23.2C22.0997 21.6 22.0997 19.9999 22.0997 18.3999C22.0997 18.3332 22.0997 18.3 22.0997 18.3C23.4997 18.3 24.9331 18.3 26.3997 18.3C26.3997 22.9667 26.3997 27.7 26.3997 32.5C26.6664 32.5 26.9331 32.5 27.1998 32.5C27.1998 32.5 27.2997 32.4 27.2997 32.3C27.2997 32.0334 27.2997 31.7332 27.2997 31.3999C27.2997 25.6666 27.2997 19.9001 27.2997 14.1001C27.2997 14.1001 27.2997 14.0667 27.2997 14C28.6997 14 30.0997 14 31.4997 14C31.4997 20.1333 31.4997 26.3 31.4997 32.5C31.833 32.5 32.0997 32.5 32.2997 32.5C32.3997 32.5 32.3997 32.4 32.3997 32.3C32.3997 32.1 32.3997 31.9 32.3997 31.7C32.3997 24.4333 32.3997 17.2 32.3997 10C32.3997 9.86667 32.3997 9.7 32.3997 9.5C33.8664 9.5 35.2998 9.5 36.6998 9.5C36.6998 17.1667 36.6998 24.8333 36.6998 32.5C37.1664 32.5 37.5997 32.5 37.9997 32.5C37.9997 33.1667 37.9997 33.8333 37.9997 34.5C37.8664 34.5 37.7664 34.5 37.6998 34.5C32.7664 34.5 27.8331 34.5 22.8997 34.5C15.4331 34.5 7.93305 34.5 0.399719 34.5C0.199719 34.5 0.199707 34.5 0.199707 34.2C0.199707 33.6666 0.199707 33.1334 0.199707 32.6001C0.199707 32.5334 0.199707 32.5 0.199707 32.5Z" fill="#D2A437"/>
<path d="M18.3998 16.1003C22.5998 11.8337 26.7664 7.53353 30.8998 3.2002C30.5664 2.86686 30.1998 2.50034 29.7998 2.10034C31.3331 1.63368 32.8331 1.16686 34.2998 0.700195C33.8998 2.3002 33.4997 3.80029 33.0997 5.30029C32.6997 4.90029 32.2998 4.6002 31.8998 4.2002C31.8331 4.26686 31.7665 4.33348 31.6998 4.40015C29.2998 6.86681 26.8997 9.33363 24.4997 11.8003C22.6331 13.7336 20.7997 15.6336 18.9997 17.5002C18.6997 17.8002 18.2997 17.9002 17.9997 17.5002C16.7331 16.3669 15.4998 15.2669 14.2998 14.2002C14.2331 14.1335 14.1664 14.0669 14.0997 14.0002C13.9664 14.0669 13.8665 14.167 13.7998 14.3003C11.5998 16.5003 9.43312 18.667 7.29979 20.8003C5.96645 22.1336 4.66643 23.4335 3.39976 24.7002C3.19976 24.9002 3.09979 25.0002 2.79979 25.0002C2.49979 25.1002 2.29978 24.9003 2.09978 24.6003C1.99978 24.4003 2.09979 24.1001 2.29979 23.9001C3.03312 23.1668 3.76641 22.4335 4.49974 21.7002C6.56641 19.6335 8.63315 17.5669 10.6998 15.5002C11.6331 14.5002 12.5997 13.5337 13.5997 12.6003C13.8997 12.3003 14.2997 12.3003 14.5997 12.6003C15.5997 13.5337 16.5997 14.4668 17.5997 15.4001C17.8664 15.6668 18.1331 15.9003 18.3998 16.1003Z" fill="#EBCC83"/>
</svg>
