<svg width="35" height="35" viewBox="0 0 35 35" fill="none" xmlns="http://www.w3.org/2000/svg">
<path fill-rule="evenodd" clip-rule="evenodd" d="M32.1 17.6992C32.1 17.8992 32.1 18.0659 32.1 18.1992C31.8 26.0992 25.5 32.4992 17.6 32.6992C17.4 32.6992 17.2334 32.6992 17.1 32.6992C16.9 32.6992 16.7334 32.6992 16.6 32.6992C8.70004 32.4992 2.3001 26.0992 2.1001 18.1992C2.1001 18.0659 2.1001 17.8992 2.1001 17.6992C2.1001 17.5659 2.1001 17.3992 2.1001 17.1992C2.3001 9.29922 8.70004 2.89922 16.6 2.69922C16.7334 2.69922 16.9 2.69922 17.1 2.69922C17.2334 2.69922 17.4 2.69922 17.6 2.69922C25.5 2.89922 31.8 9.29922 32.1 17.1992C32.1 17.3992 32.1 17.5659 32.1 17.6992ZM31.1 18.1992C31.1 18.0659 31.1 17.8992 31.1 17.6992C31.1 17.5659 31.1 17.3992 31.1 17.1992C30.8 9.89922 24.9 3.99922 17.6 3.69922C17.4 3.69922 17.2334 3.69922 17.1 3.69922C16.9 3.69922 16.7334 3.69922 16.6 3.69922C9.20004 3.99922 3.3001 9.89922 3.1001 17.1992C3.1001 17.3992 3.1001 17.5659 3.1001 17.6992C3.1001 17.8992 3.1001 18.0659 3.1001 18.1992C3.3001 25.4992 9.20004 31.4992 16.6 31.6992C16.7334 31.6992 16.9 31.6992 17.1 31.6992C17.2334 31.6992 17.4 31.6992 17.6 31.6992C24.9 31.4992 30.8 25.4992 31.1 18.1992Z" fill="#D2A437"/>
<path fill-rule="evenodd" clip-rule="evenodd" d="M28.3002 17.699C28.3002 17.899 28.3002 18.0656 28.3002 18.199C28.0002 23.999 23.4001 28.6989 17.6001 28.8989C17.4001 28.8989 17.2334 28.8989 17.1001 28.8989C16.9001 28.8989 16.7334 28.8989 16.6001 28.8989C10.8001 28.6989 6.10015 23.999 5.90015 18.199C5.90015 18.0656 5.90015 17.899 5.90015 17.699C5.90015 17.5656 5.90015 17.399 5.90015 17.199C6.10015 11.399 10.8001 6.69902 16.6001 6.49902C16.7334 6.49902 16.9001 6.49902 17.1001 6.49902C17.2334 6.49902 17.4001 6.49902 17.6001 6.49902C23.4001 6.69902 28.0002 11.399 28.3002 17.199C28.3002 17.399 28.3002 17.5656 28.3002 17.699ZM27.3002 18.199C27.3002 18.0656 27.3002 17.899 27.3002 17.699C27.3002 17.5656 27.3002 17.399 27.3002 17.199C27.0002 11.999 22.8001 7.69902 17.6001 7.49902C17.4001 7.49902 17.2334 7.49902 17.1001 7.49902C16.9001 7.49902 16.7334 7.49902 16.6001 7.49902C11.3001 7.69902 7.10015 11.999 6.90015 17.199C6.90015 17.399 6.90015 17.5656 6.90015 17.699C6.90015 17.899 6.90015 18.0656 6.90015 18.199C7.10015 23.499 11.3001 27.6989 16.6001 27.8989C16.7334 27.8989 16.9001 27.8989 17.1001 27.8989C17.2334 27.8989 17.4001 27.8989 17.6001 27.8989C22.8001 27.6989 27.0002 23.499 27.3002 18.199Z" fill="#D2A437"/>
<path fill-rule="evenodd" clip-rule="evenodd" d="M24.5001 17.6987C24.5001 17.8987 24.5001 18.0654 24.5001 18.1987C24.3001 21.8987 21.3001 24.8989 17.6001 25.0989C17.4001 25.0989 17.2334 25.0989 17.1001 25.0989C16.9001 25.0989 16.7334 25.0989 16.6001 25.0989C12.9001 24.8989 9.9002 21.8987 9.7002 18.1987C9.7002 18.0654 9.7002 17.8987 9.7002 17.6987C9.7002 17.5654 9.7002 17.3987 9.7002 17.1987C9.9002 13.4987 12.9001 10.4988 16.6001 10.2988C16.7334 10.2988 16.9001 10.2988 17.1001 10.2988C17.2334 10.2988 17.4001 10.2988 17.6001 10.2988C21.3001 10.4988 24.3001 13.4987 24.5001 17.1987C24.5001 17.3987 24.5001 17.5654 24.5001 17.6987ZM23.5001 18.1987C23.5001 18.0654 23.5001 17.8987 23.5001 17.6987C23.5001 17.5654 23.5001 17.3987 23.5001 17.1987C23.2001 14.0987 20.7001 11.4988 17.6001 11.2988C17.4001 11.2988 17.2334 11.2988 17.1001 11.2988C16.9001 11.2988 16.7334 11.2988 16.6001 11.2988C13.4001 11.4988 10.9002 14.0987 10.7002 17.1987C10.7002 17.3987 10.7002 17.5654 10.7002 17.6987C10.7002 17.8987 10.7002 18.0654 10.7002 18.1987C10.9002 21.3987 13.4001 23.8989 16.6001 24.0989C16.7334 24.0989 16.9001 24.0989 17.1001 24.0989C17.2334 24.0989 17.4001 24.0989 17.6001 24.0989C20.7001 23.8989 23.2001 21.3987 23.5001 18.1987Z" fill="#D2A437"/>
<path d="M16.6 18.1992V21.2993C15 21.0993 13.7 19.7992 13.5 18.1992H16.6Z" fill="#EBCC83"/>
<path d="M20.7002 18.1992C20.5002 19.7992 19.2001 21.0993 17.6001 21.2993V18.1992H20.7002Z" fill="#EBCC83"/>
<path d="M20.7001 17.1995H19.7001C19.7001 17.3995 19.7001 17.5661 19.7001 17.6995C19.7001 17.8995 19.7001 18.0661 19.7001 18.1995H20.7001C20.7001 18.0661 20.7001 17.8995 20.7001 17.6995C20.7001 17.5661 20.7001 17.3995 20.7001 17.1995ZM16.6 20.2996V21.2996C16.7333 21.2996 16.9 21.2996 17.1 21.2996C17.2333 21.2996 17.4 21.2996 17.6 21.2996V20.2996C17.4 20.2996 17.2333 20.2996 17.1 20.2996C16.9 20.2996 16.7333 20.2996 16.6 20.2996ZM14.5 17.1995H13.5C13.5 17.3995 13.5 17.5661 13.5 17.6995C13.5 17.8995 13.5 18.0661 13.5 18.1995H14.5C14.5 18.0661 14.5 17.8995 14.5 17.6995C14.5 17.5661 14.5 17.3995 14.5 17.1995ZM17.1 14.0996C16.9 14.0996 16.7333 14.0996 16.6 14.0996V15.0996C16.7333 15.0996 16.9 15.0996 17.1 15.0996C17.2333 15.0996 17.4 15.0996 17.6 15.0996V14.0996C17.4 14.0996 17.2333 14.0996 17.1 14.0996Z" fill="#EBCC83"/>
<path d="M16.6 14.0996V17.1995H13.5C13.7 15.5995 15 14.2996 16.6 14.0996Z" fill="#EBCC83"/>
<path d="M20.7002 17.1995H17.6001V14.0996C19.2001 14.2996 20.5002 15.5995 20.7002 17.1995Z" fill="#EBCC83"/>
<path d="M17.6001 1.09961V34.2996C17.6001 34.5996 17.4001 34.7996 17.1001 34.7996C16.8001 34.7996 16.6001 34.5996 16.6001 34.2996V1.09961C16.6001 0.899609 16.8001 0.599609 17.1001 0.599609C17.4001 0.599609 17.6001 0.899609 17.6001 1.09961Z" fill="#D2A437"/>
<path d="M34.2001 17.6992C34.2001 17.9992 33.9001 18.1992 33.7001 18.1992H0.5C0.2 18.1992 0 17.9992 0 17.6992C0 17.3992 0.2 17.1992 0.5 17.1992H33.7001C33.9001 17.1992 34.2001 17.3992 34.2001 17.6992Z" fill="#D2A437"/>
</svg>
