<svg width="31" height="47" viewBox="0 0 31 47" fill="none" xmlns="http://www.w3.org/2000/svg">
<path d="M24.5001 8.30029C24.5001 7.43363 24.5001 6.56686 24.5001 5.7002C24.5667 5.7002 24.6335 5.7002 24.7001 5.7002C25.7668 5.7002 26.8334 5.7002 27.9001 5.7002C29.1668 5.7002 30.0667 6.26681 30.6 7.40015C30.8 7.80015 30.9001 8.20034 30.9001 8.60034C30.9001 11.6003 30.9001 14.5669 30.9001 17.5002C30.9001 26.1002 30.9001 34.6669 30.9001 43.2002C30.9001 44.3335 30.4334 45.2003 29.5001 45.8003C29.0001 46.1003 28.4001 46.2002 27.9001 46.2002C25.6334 46.2002 23.4001 46.2002 21.2001 46.2002C15.6668 46.2002 10.1001 46.2002 4.50006 46.2002C4.10006 46.2002 3.73342 46.2002 3.40009 46.2002C1.80009 46.2002 0.600098 44.9001 0.600098 43.4001C0.600098 40.3335 0.600098 37.3003 0.600098 34.3003C0.600098 25.767 0.600098 17.2335 0.600098 8.7002C0.600098 7.8002 0.900073 7.00029 1.70007 6.30029C2.10007 6.00029 2.70011 5.7002 3.30011 5.7002C4.50011 5.7002 5.70009 5.7002 6.90009 5.7002C6.90009 5.7002 6.93339 5.7002 7.00006 5.7002C7.00006 5.76686 7.00006 5.80029 7.00006 5.80029C7.00006 6.60029 7.00006 7.36701 7.00006 8.10034C7.00006 8.30034 6.90011 8.30029 6.80011 8.30029C6.00011 8.30029 5.20009 8.30029 4.40009 8.30029C3.86675 8.30029 3.50011 8.53358 3.30011 9.00024C3.23344 9.13358 3.20013 9.30024 3.20013 9.50024C3.20013 13.1669 3.20013 16.8336 3.20013 20.5002C3.20013 27.7669 3.20013 35.0336 3.20013 42.3003C3.20013 42.8003 3.40011 43.2002 3.80011 43.5002C4.00011 43.6336 4.23339 43.667 4.50006 43.6003C5.90006 43.6003 7.30013 43.6003 8.70013 43.6003C14.7668 43.6003 20.8001 43.6003 26.8001 43.6003C27.1001 43.6003 27.4001 43.6002 27.7001 43.5002C28.1001 43.2336 28.3001 42.8668 28.3001 42.4001C28.3001 40.2001 28.3001 38.0003 28.3001 35.8003C28.3001 27.067 28.3001 18.3337 28.3001 9.60034C28.3001 9.20034 28.2001 8.90034 27.9001 8.60034C27.7001 8.40034 27.4334 8.30029 27.1 8.30029C26.3 8.30029 25.5001 8.30029 24.7001 8.30029C24.6335 8.30029 24.5667 8.30029 24.5001 8.30029Z" fill="#D2A437"/>
<path fill-rule="evenodd" clip-rule="evenodd" d="M15.7002 9.8999C13.5002 9.8999 11.2668 9.8999 9.00012 9.8999C8.60012 9.8999 8.20012 9.7999 8.00012 9.3999C7.93346 9.26657 7.90015 9.0999 7.90015 8.8999C7.90015 7.8999 7.90015 6.86671 7.90015 5.80005C7.90015 5.33338 8.13343 5.03323 8.6001 4.8999C8.73343 4.83323 8.86679 4.80005 9.00012 4.80005C9.40012 4.80005 9.8002 4.80005 10.2002 4.80005C11.2002 4.80005 12.0002 4.09995 12.3002 3.19995C12.7002 1.79995 13.7001 0.900097 15.1001 0.600097C16.6001 0.300097 18.2001 1.0999 18.9001 2.3999C19.0335 2.66657 19.1335 2.93328 19.2002 3.19995C19.4002 3.99995 19.9002 4.49995 20.7002 4.69995C20.9002 4.76662 21.1335 4.80005 21.4001 4.80005C21.8001 4.80005 22.2335 4.80005 22.7002 4.80005C23.2002 4.80005 23.5001 5.19995 23.6001 5.69995C23.6001 5.76662 23.6001 5.83323 23.6001 5.8999C23.6001 6.8999 23.6001 7.8999 23.6001 8.8999C23.6001 9.36657 23.4001 9.66671 23.0001 9.80005C22.8001 9.86671 22.6335 9.8999 22.5001 9.8999C20.2335 9.8999 17.9669 9.8999 15.7002 9.8999ZM15.8002 1.80005C14.9002 1.80005 14.2001 2.4999 14.1001 3.3999C14.1001 4.2999 14.8002 5 15.7002 5C16.6002 5 17.3001 4.2999 17.4001 3.3999C17.4001 2.4999 16.7002 1.80005 15.8002 1.80005Z" fill="#D2A437"/>
<path fill-rule="evenodd" clip-rule="evenodd" d="M12.6 17.7002C12.6 18.1669 12.6 18.6002 12.6 19.0002C12.6 20.3002 11.6 21.3003 10.4 21.3003C9.53336 21.3003 8.66672 21.3003 7.80005 21.3003C6.40005 21.2003 5.5 20.2002 5.5 19.0002C5.5 18.1336 5.5 17.3002 5.5 16.5002C5.5 15.2002 6.50005 14.2002 7.80005 14.2002C8.60005 14.2002 9.43338 14.2002 10.3 14.2002C11.2334 14.2002 11.9 14.6001 12.3 15.4001C12.5 15.7335 12.6 16.0668 12.6 16.4001C12.6 16.8668 12.6 17.3002 12.6 17.7002ZM6.30005 17.8003C6.30005 18.2003 6.30005 18.6337 6.30005 19.1003C6.30005 19.3003 6.36667 19.5002 6.5 19.7002C6.83333 20.2335 7.26672 20.4668 7.80005 20.4001C8.46672 20.4001 9.13338 20.4001 9.80005 20.4001C10 20.4668 10.2333 20.4668 10.5 20.4001C11.2 20.4001 11.7 19.8003 11.8 19.1003C11.8 18.2337 11.8 17.3335 11.8 16.4001C11.7 15.6001 11.2 15.1002 10.5 15.0002C9.5 15.0002 8.53331 15.0002 7.59998 15.0002C6.89998 15.1002 6.30005 15.7001 6.30005 16.4001C6.30005 16.8668 6.30005 17.3336 6.30005 17.8003Z" fill="#EBCC83"/>
<path fill-rule="evenodd" clip-rule="evenodd" d="M9.09998 24.2998C9.59998 24.2998 10 24.2998 10.5 24.2998C11.7 24.3998 12.5 25.2997 12.6 26.3997C12.6 27.333 12.6 28.2664 12.6 29.1997C12.5 30.3997 11.6 31.3997 10.4 31.3997C9.53336 31.3997 8.63341 31.3997 7.70007 31.3997C6.50007 31.3997 5.5 30.3999 5.5 29.0999C5.5 28.2332 5.5 27.3999 5.5 26.5999C5.5 25.5332 5.96669 24.8331 6.90002 24.4998C7.20002 24.2998 7.50005 24.2998 7.80005 24.2998C8.26672 24.2998 8.69998 24.2998 9.09998 24.2998ZM9 25.0999C8.53333 25.0999 8.06664 25.0999 7.59998 25.0999C6.89998 25.1999 6.30005 25.6998 6.30005 26.4998C6.30005 27.3664 6.30005 28.2664 6.30005 29.1997C6.30005 29.3997 6.33336 29.5664 6.40002 29.6997C6.70002 30.2997 7.20005 30.4998 7.80005 30.4998C8.66672 30.5664 9.53336 30.5999 10.4 30.5999C11.1 30.4999 11.7 29.9997 11.8 29.1997C11.8 28.2664 11.8 27.3664 11.8 26.4998C11.7 25.6998 11.2 25.1999 10.4 25.0999C9.93336 25.0999 9.46667 25.0999 9 25.0999Z" fill="#EBCC83"/>
<path fill-rule="evenodd" clip-rule="evenodd" d="M12.6 37.9004C12.6 38.3004 12.6 38.7338 12.6 39.2004C12.6 40.2004 12 41.0005 11 41.3005C10.7333 41.3672 10.5 41.4004 10.3 41.4004C9.43338 41.4671 8.60005 41.4671 7.80005 41.4004C6.80005 41.4004 6.10007 40.9673 5.70007 40.1006C5.56674 39.8339 5.5 39.5338 5.5 39.2004C5.5 38.3338 5.5 37.5004 5.5 36.7004C5.5 35.6004 6.1 34.8005 7 34.5005C7.26667 34.4338 7.53338 34.4004 7.80005 34.4004C8.60005 34.4004 9.43338 34.4004 10.3 34.4004C11.2 34.4004 11.9 34.8006 12.3 35.6006C12.5 35.9339 12.6 36.3004 12.6 36.7004C12.6 37.1004 12.6 37.5004 12.6 37.9004ZM6.30005 37.9004C6.30005 38.4004 6.30005 38.9005 6.30005 39.3005C6.40005 40.0005 6.89998 40.6006 7.59998 40.6006C8.53331 40.6673 9.46669 40.6673 10.4 40.6006C11.1 40.6006 11.7 40.0005 11.8 39.3005C11.8 38.4339 11.8 37.5339 11.8 36.6006C11.7 35.8006 11.2 35.2004 10.3 35.2004C9.43338 35.2004 8.56674 35.2004 7.70007 35.2004C7.00007 35.2004 6.30005 35.8006 6.30005 36.6006C6.30005 37.0006 6.30005 37.4337 6.30005 37.9004Z" fill="#EBCC83"/>
<path d="M20.4 18.9004C22 18.9004 23.6001 18.9004 25.2001 18.9004C25.4001 18.9004 25.5 18.9006 25.6 19.1006C25.7333 19.2339 25.7667 19.3672 25.7001 19.5005C25.6001 19.6005 25.5 19.8005 25.4 19.8005C25.2 19.8005 25.0001 19.8005 24.8001 19.8005C21.7334 19.8005 18.6667 19.8005 15.6 19.8005C15.5333 19.8005 15.5 19.8005 15.5 19.8005C15.2 19.7005 15 19.6005 15.1 19.3005C15.1 19.1005 15.2 18.9004 15.5 18.9004C16.1 18.9004 16.6667 18.9004 17.2001 18.9004C18.2667 18.9004 19.3334 18.9004 20.4 18.9004Z" fill="#D2A437"/>
<path d="M20.4 26.9995C18.8 26.9995 17.2 26.9995 15.6 26.9995C15.4 26.9995 15.3001 26.9994 15.2001 26.8994C15.0667 26.6994 15.0333 26.5327 15.1 26.3994C15.1666 26.2661 15.2667 26.1663 15.4 26.0996C15.5333 26.0996 15.6667 26.0996 15.8 26.0996C18.9334 26.0996 22.0667 26.0996 25.2001 26.0996C25.2001 26.0996 25.2334 26.0996 25.3 26.0996C25.6 26.0996 25.7001 26.2996 25.7001 26.5996C25.7001 26.7996 25.5 26.9995 25.3 26.9995C24.2334 26.9995 23.1666 26.9995 22.1 26.9995C21.5666 26.9995 21 26.9995 20.4 26.9995Z" fill="#D2A437"/>
<path d="M20.4001 16C22.0001 16 23.5667 16 25.1 16C25.1667 16 25.2334 16.0334 25.3001 16.1001C25.6001 16.1001 25.7001 16.2 25.7001 16.5C25.7001 16.7 25.6001 16.8999 25.3001 16.8999C25.1668 16.8999 25.0001 16.8999 24.8001 16.8999C21.7334 16.8999 18.6334 16.8999 15.5001 16.8999C15.1001 16.8999 15 16.5 15.1 16.3C15.1667 16.1667 15.3001 16.1001 15.5001 16.1001C15.8334 16.0334 16.1667 16 16.5001 16C17.7667 16 19.0667 16 20.4001 16Z" fill="#D2A437"/>
<path d="M20.4 39.8994C18.8 39.8994 17.1667 39.8994 15.5 39.8994C15.3 39.8994 15.1667 39.8328 15.1 39.6995C15 39.3995 15.2 39.0996 15.5 39.0996C15.8333 39.0996 16.1667 39.0996 16.5 39.0996C19.4333 39.0996 22.3334 39.0996 25.2001 39.0996C25.2001 39.0996 25.2334 39.0996 25.3001 39.0996C25.6001 39.0996 25.7001 39.2995 25.7001 39.4995C25.7001 39.7995 25.5001 39.8994 25.3001 39.8994C23.6334 39.8994 22 39.8994 20.4 39.8994Z" fill="#D2A437"/>
<path d="M20.4 37.1003C18.8 37.0337 17.1667 37.0337 15.5 37.1003C15.2 37.1003 15 36.7002 15.1 36.5002C15.1667 36.3002 15.3 36.2002 15.5 36.2002C16.1667 36.2002 16.8667 36.2002 17.6 36.2002C20.1333 36.2002 22.6667 36.2002 25.2001 36.2002C25.2667 36.2002 25.3667 36.2336 25.5 36.3003C25.7 36.3003 25.8001 36.5002 25.7001 36.7002C25.7001 36.9002 25.5001 37.1003 25.3001 37.1003C24.4334 37.1003 23.6001 37.1003 22.8001 37.1003C22.0001 37.1003 21.2 37.1003 20.4 37.1003Z" fill="#D2A437"/>
<path d="M20.4001 29.8C18.8001 29.8 17.2 29.8 15.6 29.8C15.4 29.8 15.2 29.8001 15.1 29.6001C15 29.3001 15.1001 29 15.5001 29C15.9001 29 16.3001 29 16.7001 29C19.5001 29 22.3335 29 25.2001 29C25.4001 29 25.6001 29 25.7001 29.2C25.8001 29.5 25.7001 29.8 25.3001 29.8C25.1001 29.8667 24.9001 29.8667 24.7001 29.8C23.3001 29.8 21.8667 29.8 20.4001 29.8Z" fill="#D2A437"/>
<path d="M8.80022 18.2C9.13355 17.8 9.46688 17.3666 9.80022 16.9C10.0002 16.6333 10.2002 16.4 10.4002 16.2C10.5002 16 10.6002 15.9 10.8002 15.9C11.0002 15.8333 11.1669 15.9002 11.3002 16.1002C11.4335 16.3002 11.4335 16.5 11.3002 16.7C11.1002 17.0334 10.9002 17.3335 10.7002 17.6002C10.2336 18.2668 9.76688 18.9001 9.30022 19.5001C9.00022 19.8001 8.70017 19.8001 8.50017 19.5001C8.0335 18.9667 7.56681 18.4333 7.10014 17.9C7.00014 17.7 6.90017 17.5001 7.00017 17.3001C7.10017 16.9001 7.60019 16.8002 7.90019 17.1002C8.16686 17.3668 8.40014 17.6333 8.60014 17.9C8.66681 18.0333 8.73355 18.1334 8.80022 18.2Z" fill="#EBCC83"/>
<path d="M8.80002 28.3003C9.13336 27.9003 9.46669 27.467 9.80002 27.0003C10 26.7336 10.2 26.4669 10.4 26.2002C10.6 25.9002 10.9 25.9004 11.2 26.1004C11.4 26.2004 11.5 26.6003 11.3 26.8003C11.0334 27.2003 10.7666 27.6003 10.5 28.0003C10.1 28.5336 9.70002 29.0671 9.30002 29.6004C9.03336 29.9337 8.76664 29.9337 8.49998 29.6004C8.03331 29.0671 7.56662 28.5336 7.09995 28.0003C6.89995 27.8003 6.89995 27.5003 7.09995 27.3003C7.19995 27.1003 7.50005 27.0004 7.70005 27.1004C7.83338 27.1671 7.93331 27.2669 7.99998 27.4002C8.26664 27.6669 8.53336 27.967 8.80002 28.3003Z" fill="#EBCC83"/>
<path d="M8.80007 38.3997C9.26674 37.7997 9.7 37.1999 10.1 36.5999C10.2333 36.4666 10.3334 36.3331 10.4 36.1998C10.6 35.9998 10.9001 35.9999 11.2001 36.0999C11.4001 36.2999 11.5001 36.5997 11.3001 36.8997C11.1001 37.2331 10.8667 37.5664 10.6 37.8997C10.1333 38.4997 9.70007 39.0998 9.30007 39.6998C9.00007 39.9998 8.70002 39.9998 8.50002 39.6998C8.16669 39.2998 7.83335 38.8998 7.50002 38.4998C7.30002 38.3665 7.13335 38.1998 7.00002 37.9998C6.90002 37.7998 6.9 37.4999 7.1 37.2999C7.3 37.0999 7.70005 37.0999 7.90005 37.2999C8.10005 37.5665 8.33333 37.8333 8.6 38.0999C8.66666 38.2333 8.7334 38.3331 8.80007 38.3997Z" fill="#EBCC83"/>
</svg>
