<svg width="36" height="43" viewBox="0 0 36 43" fill="none" xmlns="http://www.w3.org/2000/svg">
<path fill-rule="evenodd" clip-rule="evenodd" d="M12.9 22.7998C13.4 24.5998 14 26.3998 14.5 28.2998C15.8 26.9998 16.9999 25.6998 18.2999 24.2998C19.4999 25.5998 20.8 26.8998 22 28.2998C22.6 26.3998 23.1999 24.5998 23.6999 22.7998C23.7666 22.8664 23.8666 22.933 24 22.9997C24.8 23.5997 25.7999 24.0997 26.7999 24.4997C27.5999 24.833 28.3666 25.1664 29.1 25.4997C30.3 26.033 31.4999 26.5997 32.6999 27.1997C33.5999 27.5997 34.4 28.1998 34.9 29.0998C35.2333 29.7665 35.4333 30.4998 35.5 31.2998C35.8 33.8998 35.6999 36.4998 35.6999 39.0998C35.6999 39.3665 35.6999 39.6329 35.6999 39.8996C35.6999 40.0329 35.6666 40.0998 35.6 40.0998C34.4 40.3998 33.3 40.7997 32.1 40.9997C31.0333 41.333 29.9333 41.5998 28.7999 41.7998C27.6666 41.9998 26.5333 42.1664 25.4 42.2998C23.2666 42.5664 21.1 42.6997 18.9 42.6997C16.6333 42.6997 14.3999 42.5996 12.1999 42.3996C9.39994 42.1329 6.63328 41.6329 3.89995 40.8996C2.99995 40.6996 1.99996 40.3998 0.999957 40.0998C0.899957 40.0998 0.899951 39.9996 0.899951 39.8996C0.799951 37.3996 0.799951 34.9998 0.899951 32.5998C0.999951 31.7998 1.09995 30.8998 1.29995 30.0998C1.69995 28.7998 2.39994 27.7997 3.69994 27.1997C5.29994 26.4997 6.89996 25.7998 8.49996 25.0998C9.56662 24.5665 10.6666 24.033 11.7999 23.4997C12.0999 23.2997 12.3999 23.0996 12.7999 22.8996C12.7999 22.8329 12.8333 22.7998 12.9 22.7998ZM17.6 23.7998C16.4 22.9331 15.2333 22.0998 14.1 21.2998C13.9 21.1998 13.8 21.0996 13.9 20.8996C13.9666 20.8329 14 20.7663 14 20.6997C14 19.8997 13.9999 19.0996 13.6999 18.3996C13.6333 18.1329 13.5333 17.8997 13.4 17.6997C13 16.9997 12.7 16.3998 12.5 15.5998C12.4333 15.5331 12.4 15.4663 12.4 15.3996C12 15.5996 11.7999 15.2997 11.6999 14.9997C11.2999 14.0997 11 13.1997 10.9 12.1997C10.8333 11.9997 10.8333 11.7664 10.9 11.4997C10.9 11.1997 11.1 11.0997 11.4 10.9997C11.6 10.9997 11.6 10.8998 11.6 10.7998C11.5333 10.4664 11.5 10.1331 11.5 9.79976C11.4 8.59976 11.3 7.49976 11.4 6.29976C11.5 5.29976 11.6999 4.39971 12.2999 3.49971C12.8999 2.59971 13.7999 1.99971 14.7999 1.49971C15.5999 1.16637 16.4333 0.966276 17.2999 0.899609C17.6333 0.832943 17.9666 0.832943 18.2999 0.899609C18.7666 0.966276 19.2666 1.03314 19.7999 1.0998C20.5333 1.0998 21.1999 1.29966 21.7999 1.69966C22.5999 2.19966 23.3 2.8998 24 3.5998C24.7 4.2998 24.9999 5.19966 25.1999 6.19966C25.3999 7.49966 25.3 8.69971 25.1 9.99971C25.0333 10.2664 25 10.5663 25 10.8996C25 10.9996 24.9999 11.0997 25.1999 10.9997C25.3999 10.9997 25.5999 11.1996 25.6999 11.3996C25.6999 11.6663 25.6999 11.933 25.6999 12.1997C25.5999 12.9997 25.4 13.8998 25 14.5998C24.9333 14.7998 24.8666 14.9665 24.7999 15.0998C24.6999 15.2998 24.4999 15.4996 24.2999 15.3996C24.1999 15.3996 24.1 15.4998 24.1 15.5998C23.8 16.2998 23.5 16.9997 23.1 17.6997C22.8333 18.2997 22.6666 18.9663 22.6 19.6997C22.6 20.0997 22.4999 20.5997 22.6999 20.9997C22.6999 21.0997 22.6 21.1997 22.6 21.1997C21.7333 21.7997 20.9 22.3997 20.1 22.9997C19.5 23.3997 18.9333 23.7997 18.4 24.1997C18.4 24.1997 18.3666 24.2331 18.2999 24.2998C18.0333 24.0998 17.8 23.9331 17.6 23.7998ZM20.2999 26.6997C20.2999 26.7997 20.2999 26.8997 20.1999 26.9997C19.9333 27.533 19.6333 28.0997 19.2999 28.6997C19.2333 28.833 19.1999 28.9997 19.1999 29.1997C19.3999 30.333 19.5999 31.4997 19.7999 32.6997C19.8666 33.1663 19.9666 33.6331 20.1 34.0998C20.1666 34.0331 20.1999 33.9997 20.1999 33.9997C20.3333 33.6664 20.4333 33.2996 20.5 32.8996C20.9666 31.4996 21.4333 30.0665 21.9 28.5998C21.9666 28.4665 21.9666 28.3664 21.9 28.2998C21.5 27.8998 21.0999 27.533 20.6999 27.1997C20.6333 27.0663 20.4999 26.8997 20.2999 26.6997ZM16.1999 26.7998C16.1999 26.7998 16.1999 26.8329 16.1999 26.8996C15.6666 27.3663 15.1666 27.8663 14.6999 28.3996C14.6999 28.3996 14.6999 28.4998 14.6999 28.5998C14.7666 28.7998 14.8333 29.0331 14.9 29.2998C15.3666 30.7664 15.8333 32.2664 16.2999 33.7998C16.3666 33.8664 16.4333 33.9665 16.5 34.0998C16.5 33.8998 16.6 33.7998 16.6 33.5998C16.8666 32.1331 17.1333 30.6998 17.4 29.2998C17.4 29.0998 17.3666 28.8997 17.2999 28.6997C16.9666 28.0997 16.5999 27.4664 16.1999 26.7998Z" fill="url(#paint0_linear_17_15613)"/>
<defs>
<linearGradient id="paint0_linear_17_15613" x1="0.830951" y1="0.84161" x2="35.7489" y2="0.84161" gradientUnits="userSpaceOnUse">
<stop stop-color="#D2A437"/>
<stop offset="1" stop-color="#D2A437"/>
</linearGradient>
</defs>
</svg>
